<svg width="944" height="170" viewBox="0 0 944 170" fill="none" xmlns="http://www.w3.org/2000/svg">
<path id="KOMMUNE 62" d="M20.4 40.13C22.1 40.13 23.97 40.0167 26.01 39.79C28.05 39.45 30.09 39.28 32.13 39.28C34.2833 39.28 36.38 39.5633 38.42 40.13C40.46 40.6967 42.2733 41.83 43.86 43.53C44.6533 45.1167 44.71 46.08 44.03 46.42C43.4633 46.6467 42.4433 46.76 40.97 46.76C39.61 46.76 37.9667 46.93 36.04 47.27C34.1133 47.4967 32.3 48.4033 30.6 49.99C30.6 51.69 30.77 53.56 31.11 55.6C31.45 57.64 31.6767 59.7367 31.79 61.89C32.0167 64.0433 32.0733 66.14 31.96 68.18C31.8467 70.1067 31.3933 71.92 30.6 73.62C31.3933 74.5267 31.6767 75.7733 31.45 77.36C31.3367 78.8333 31.0533 80.42 30.6 82.12C30.1467 83.82 29.8067 85.4633 29.58 87.05C29.3533 88.6367 29.6933 89.8267 30.6 90.62V97.42C34.7933 93.2267 38.42 89.0333 41.48 84.84C44.6533 80.5333 47.7133 76.2833 50.66 72.09C53.6067 67.8967 56.6667 63.7033 59.84 59.51C63.0133 55.3167 66.6967 51.1233 70.89 46.93C69.9833 46.93 68.9633 47.0433 67.83 47.27C66.6967 47.4967 65.62 47.61 64.6 47.61C63.58 47.61 62.6733 47.3267 61.88 46.76C61.2 46.1933 60.86 45.1167 60.86 43.53C61.6533 42.7367 62.6733 42.2833 63.92 42.17C65.1667 41.9433 66.5267 41.83 68 41.83C69.4733 41.83 71.0033 41.7733 72.59 41.66C74.29 41.5467 75.99 41.0367 77.69 40.13H94.52L97.92 43.53C97.92 45.23 97.75 46.76 97.41 48.12C97.1833 49.3667 96.22 49.99 94.52 49.99C93.6133 49.99 92.5933 49.82 91.46 49.48C90.3267 49.14 89.08 48.8 87.72 48.46C86.4733 48.12 85.2267 47.78 83.98 47.44C82.8467 47.1 81.8833 46.93 81.09 46.93C78.4833 50.2167 76.1033 53.39 73.95 56.45C71.7967 59.3967 69.6433 62.23 67.49 64.95C65.45 67.67 63.2967 70.3333 61.03 72.94C58.8767 75.4333 56.5533 77.9267 54.06 80.42C54.06 82.12 54.4 83.82 55.08 85.52C55.8733 87.22 56.78 88.92 57.8 90.62C58.9333 92.32 60.0667 94.02 61.2 95.72C62.3333 97.3067 63.3533 98.95 64.26 100.65C65.0533 102.35 65.8467 104.22 66.64 106.26C67.5467 108.3 68.51 110.397 69.53 112.55C70.6633 114.59 71.8533 116.63 73.1 118.67C74.46 120.71 75.99 122.523 77.69 124.11C77.69 125.017 78.03 125.923 78.71 126.83C79.39 127.623 80.1267 128.587 80.92 129.72C81.8267 130.74 82.62 131.93 83.3 133.29C84.0933 134.537 84.49 136.01 84.49 137.71H87.89C88.6833 137.71 89.4767 137.54 90.27 137.2C91.1767 136.86 92.0267 136.633 92.82 136.52C93.7267 136.293 94.5767 136.237 95.37 136.35C96.1633 136.463 97.0133 136.917 97.92 137.71C99.62 137.71 101.037 138.447 102.17 139.92C103.303 141.28 103.02 142.81 101.32 144.51C98.7133 146.21 95.9367 147.117 92.99 147.23C90.1567 147.457 87.1533 147.343 83.98 146.89C80.8067 146.55 77.5767 146.04 74.29 145.36C71.0033 144.793 67.66 144.51 64.26 144.51V141.11C65.0533 140.317 65.8467 139.863 66.64 139.75C67.5467 139.523 68.3967 139.41 69.19 139.41C70.0967 139.41 70.9467 139.353 71.74 139.24C72.5333 139.127 73.3833 138.617 74.29 137.71L54.06 104.05C54.06 102.35 53.8333 100.707 53.38 99.12C52.9267 97.5333 52.2467 96.1167 51.34 94.87C50.5467 93.6233 49.5267 92.6033 48.28 91.81C47.0333 91.0167 45.56 90.62 43.86 90.62C42.2733 93.1133 40.5167 95.6633 38.59 98.27C36.6633 100.877 34.9633 103.653 33.49 106.6C32.0167 109.547 30.94 112.72 30.26 116.12C29.58 119.52 29.6933 123.317 30.6 127.51C31.3933 128.417 31.6767 129.493 31.45 130.74C31.3367 131.873 31.1667 133.063 30.94 134.31C30.8267 135.557 30.8833 136.803 31.11 138.05C31.3367 139.297 32.3 140.317 34 141.11C37.2867 139.41 39.8933 138.73 41.82 139.07C43.7467 139.297 45.56 141.11 47.26 144.51L43.86 147.74C41.3667 147.74 39.2133 147.57 37.4 147.23C35.7 147.003 34 146.777 32.3 146.55C30.6 146.323 28.7867 146.267 26.86 146.38C25.0467 146.493 22.8933 146.947 20.4 147.74H17C16.32 148.42 15.7533 148.873 15.3 149.1C14.28 149.667 13.77 149.213 13.77 147.74C12.8633 147.74 11.8433 147.513 10.71 147.06C9.57667 146.72 8.55667 146.267 7.65 145.7C6.85667 145.133 6.29 144.453 5.95 143.66C5.72333 142.867 6.06333 142.017 6.97 141.11C7.53667 139.41 8.27333 138.39 9.18 138.05C10.0867 137.597 11.05 137.54 12.07 137.88C13.09 138.107 14.1667 138.503 15.3 139.07C16.5467 139.523 17.68 139.807 18.7 139.92C19.72 139.92 20.6833 139.58 21.59 138.9C22.4967 138.107 23.2333 136.577 23.8 134.31L20.4 127.51V63.59C22.1 61.89 22.95 59.6233 22.95 56.79C22.95 53.9567 22.1 51.69 20.4 49.99C19.4933 49.1967 18.4733 49.0833 17.34 49.65C16.2067 50.1033 14.96 50.5567 13.6 51.01C12.3533 51.4633 11.1067 51.52 9.86 51.18C8.72667 50.84 7.76333 49.4233 6.97 46.93C6.97 45.23 7.08333 43.7 7.31 42.34C7.65 40.8667 8.67 40.13 10.37 40.13C11.1633 40.13 11.9567 39.96 12.75 39.62C13.6567 39.28 14.5067 39.0533 15.3 38.94C16.2067 38.7133 17.0567 38.6567 17.85 38.77C18.6433 38.8833 19.4933 39.3367 20.4 40.13ZM174.23 45.57C178.423 48.8567 181.767 52.9367 184.26 57.81C186.867 62.57 188.907 67.7833 190.38 73.45C191.853 79.0033 192.817 84.84 193.27 90.96C193.837 97.08 194.12 103.03 194.12 108.81C192.42 112.097 190.493 115.723 188.34 119.69C186.3 123.543 183.92 127.227 181.2 130.74C178.48 134.253 175.42 137.37 172.02 140.09C168.733 142.81 164.993 144.567 160.8 145.36C144.253 148.76 130.993 142.073 121.02 125.3C121.02 123.713 120.623 122.24 119.83 120.88C119.15 119.52 118.357 118.16 117.45 116.8C116.657 115.327 115.92 113.683 115.24 111.87C114.56 110.057 114.22 107.903 114.22 105.41C113.427 100.423 113.2 95.3233 113.54 90.11C113.993 84.7833 114.9 79.5133 116.26 74.3C117.733 69.0867 119.717 64.0433 122.21 59.17C124.703 54.2967 127.593 49.7633 130.88 45.57C132.58 45.57 134.053 45.23 135.3 44.55C136.66 43.87 137.963 43.1333 139.21 42.34C140.457 41.4333 141.703 40.64 142.95 39.96C144.31 39.28 145.84 38.94 147.54 38.94C152.64 38.94 157.513 39.2233 162.16 39.79C166.807 40.3567 170.83 42.2833 174.23 45.57ZM171 52.2C169.3 50.5 167.203 49.2533 164.71 48.46C162.33 47.5533 159.78 47.0433 157.06 46.93C154.34 46.7033 151.563 46.8167 148.73 47.27C146.01 47.61 143.403 48.1767 140.91 48.97C139.21 50.67 137.397 52.54 135.47 54.58C133.543 56.62 131.73 58.7733 130.03 61.04C128.443 63.3067 127.083 65.6867 125.95 68.18C124.817 70.56 124.25 72.9967 124.25 75.49C122.663 78.89 121.7 82.8 121.36 87.22C121.133 91.64 121.02 95.55 121.02 98.95C121.02 101.443 121.53 104.107 122.55 106.94C123.683 109.773 125.1 112.663 126.8 115.61C128.5 118.443 130.313 121.277 132.24 124.11C134.167 126.943 135.98 129.607 137.68 132.1C140.967 135.387 144.933 137.2 149.58 137.54C154.34 137.767 159.213 137.087 164.2 135.5C168.393 133.007 171.963 129.777 174.91 125.81C177.857 121.73 180.237 117.31 182.05 112.55C183.977 107.79 185.337 102.803 186.13 97.59C187.037 92.3767 187.49 87.2767 187.49 82.29C185.79 78.89 184.09 74.98 182.39 70.56C180.803 66.14 179.16 62.23 177.46 58.83L171 52.2ZM232.049 47.44C231.142 49.14 231.142 50.67 232.049 52.03C233.069 53.39 234.202 54.6933 235.449 55.94C236.695 57.1867 237.772 58.49 238.679 59.85C239.585 61.0967 239.585 62.57 238.679 64.27C239.585 65.0633 239.925 66.0833 239.699 67.33C239.585 68.4633 239.415 69.6533 239.189 70.9C238.962 72.1467 238.962 73.3933 239.189 74.64C239.529 75.7733 240.549 76.7933 242.249 77.7C243.042 79.4 243.665 81.44 244.119 83.82C244.572 86.0867 245.025 88.4667 245.479 90.96C245.932 93.4533 246.385 95.89 246.839 98.27C247.292 100.65 247.972 102.69 248.879 104.39C249.445 105.07 249.955 105.523 250.409 105.75C250.862 105.977 251.259 106.033 251.599 105.92C251.939 105.807 252.109 105.297 252.109 104.39C252.902 103.597 253.525 102.407 253.979 100.82C254.545 99.2333 255.055 97.5333 255.509 95.72C255.962 93.7933 256.415 91.8667 256.869 89.94C257.322 87.9 257.945 86.03 258.739 84.33C258.739 81.8367 259.079 79.5133 259.759 77.36C260.439 75.2067 261.175 73.2233 261.969 71.41C262.875 69.4833 263.669 67.67 264.349 65.97C265.029 64.27 265.369 62.57 265.369 60.87C267.069 59.17 268.089 57.3567 268.429 55.43C268.769 53.39 269.052 51.4633 269.279 49.65C269.505 47.7233 269.959 45.9667 270.639 44.38C271.319 42.7933 272.962 41.6033 275.569 40.81H292.399C293.985 40.81 294.892 41.49 295.119 42.85C295.459 44.21 295.629 45.74 295.629 47.44C294.835 49.14 293.872 49.99 292.739 49.99C291.605 49.8767 290.472 49.5933 289.339 49.14C288.319 48.6867 287.412 48.46 286.619 48.46C285.939 48.3467 285.599 49.14 285.599 50.84V137.88C285.599 138.787 285.712 139.297 285.939 139.41C286.279 139.41 286.675 139.297 287.129 139.07C287.582 138.843 288.149 138.447 288.829 137.88C289.735 136.973 290.585 136.52 291.379 136.52C292.285 136.407 293.022 136.463 293.589 136.69C294.269 137.03 294.949 137.427 295.629 137.88C297.329 139.467 298.179 140.543 298.179 141.11C298.179 141.677 297.329 142.81 295.629 144.51C293.929 145.303 292.399 145.757 291.039 145.87C289.792 145.983 288.545 145.927 287.299 145.7C286.052 145.473 284.749 145.19 283.389 144.85C282.142 144.623 280.669 144.51 278.969 144.51C277.269 144.51 275.795 144.793 274.549 145.36C273.302 145.927 272.112 146.323 270.979 146.55C269.959 146.777 268.995 146.55 268.089 145.87C267.182 145.19 266.275 143.603 265.369 141.11C265.369 139.523 265.482 138.617 265.709 138.39C266.049 138.05 267.125 137.88 268.939 137.88C270.639 137.88 272.169 138.05 273.529 138.39C274.889 138.617 275.569 139.523 275.569 141.11C276.362 138.617 276.815 136.293 276.929 134.14C277.155 131.987 277.269 129.89 277.269 127.85C277.269 125.697 277.325 123.543 277.439 121.39C277.552 119.237 278.062 116.913 278.969 114.42V70.9L275.569 50.84C272.962 55.0333 270.922 59.5667 269.449 64.44C268.089 69.3133 266.842 74.4133 265.709 79.74C264.689 84.9533 263.669 90.2233 262.649 95.55C261.742 100.877 260.439 106.033 258.739 111.02C257.152 112.72 255.509 113.74 253.809 114.08C252.109 114.307 250.465 114.42 248.879 114.42C247.179 112.72 245.989 110.907 245.309 108.98C244.742 106.94 244.232 104.843 243.779 102.69C243.439 100.537 242.929 98.4967 242.249 96.57C241.569 94.53 240.379 92.66 238.679 90.96C236.979 84.3867 234.712 77.7567 231.879 71.07C229.159 64.27 227.005 57.5267 225.419 50.84V137.88C225.985 139.013 226.665 139.637 227.459 139.75C228.365 139.863 229.272 139.807 230.179 139.58C231.085 139.353 231.935 139.07 232.729 138.73C233.635 138.39 234.372 138.277 234.939 138.39C235.505 138.503 235.845 139.013 235.959 139.92C236.072 140.827 235.845 142.357 235.279 144.51V147.74C233.579 146.607 231.652 146.04 229.499 146.04C227.459 146.153 225.305 146.38 223.039 146.72C220.772 147.173 218.505 147.683 216.239 148.25C213.972 148.817 211.875 148.987 209.949 148.76C208.022 148.647 206.322 148.023 204.849 146.89C203.489 145.87 202.525 143.943 201.959 141.11C202.752 140.317 203.545 139.58 204.339 138.9C205.245 138.107 206.095 137.483 206.889 137.03C207.795 136.577 208.645 136.407 209.439 136.52C210.232 136.633 211.082 137.087 211.989 137.88L215.389 141.11C217.089 140.317 217.995 139.353 218.109 138.22C218.335 136.973 218.222 135.727 217.769 134.48C217.429 133.233 216.919 132.043 216.239 130.91C215.672 129.777 215.389 128.757 215.389 127.85V50.84H218.789C217.089 50.0467 215.559 49.7633 214.199 49.99C212.952 50.1033 211.762 50.2733 210.629 50.5C209.609 50.6133 208.645 50.5567 207.739 50.33C206.945 50.1033 206.152 49.14 205.359 47.44C204.452 46.6467 203.942 45.8533 203.829 45.06C203.829 44.1533 204.055 43.4167 204.509 42.85C204.962 42.2833 205.529 41.83 206.209 41.49C207.002 41.0367 207.795 40.81 208.589 40.81C210.289 40.0167 211.989 39.7333 213.689 39.96C215.389 40.0733 217.032 40.3567 218.619 40.81C220.319 41.15 221.962 41.4333 223.549 41.66C225.249 41.8867 226.949 41.6033 228.649 40.81C229.442 40.0167 230.065 39.7333 230.519 39.96C231.085 40.1867 231.425 40.7533 231.539 41.66C231.765 42.4533 231.879 43.4167 231.879 44.55C231.992 45.6833 232.049 46.6467 232.049 47.44ZM335.974 47.44C335.068 49.14 335.068 50.67 335.974 52.03C336.994 53.39 338.128 54.6933 339.374 55.94C340.621 57.1867 341.698 58.49 342.604 59.85C343.511 61.0967 343.511 62.57 342.604 64.27C343.511 65.0633 343.851 66.0833 343.624 67.33C343.511 68.4633 343.341 69.6533 343.114 70.9C342.888 72.1467 342.888 73.3933 343.114 74.64C343.454 75.7733 344.474 76.7933 346.174 77.7C346.968 79.4 347.591 81.44 348.044 83.82C348.498 86.0867 348.951 88.4667 349.404 90.96C349.858 93.4533 350.311 95.89 350.764 98.27C351.218 100.65 351.898 102.69 352.804 104.39C353.371 105.07 353.881 105.523 354.334 105.75C354.788 105.977 355.184 106.033 355.524 105.92C355.864 105.807 356.034 105.297 356.034 104.39C356.828 103.597 357.451 102.407 357.904 100.82C358.471 99.2333 358.981 97.5333 359.434 95.72C359.888 93.7933 360.341 91.8667 360.794 89.94C361.248 87.9 361.871 86.03 362.664 84.33C362.664 81.8367 363.004 79.5133 363.684 77.36C364.364 75.2067 365.101 73.2233 365.894 71.41C366.801 69.4833 367.594 67.67 368.274 65.97C368.954 64.27 369.294 62.57 369.294 60.87C370.994 59.17 372.014 57.3567 372.354 55.43C372.694 53.39 372.978 51.4633 373.204 49.65C373.431 47.7233 373.884 45.9667 374.564 44.38C375.244 42.7933 376.888 41.6033 379.494 40.81H396.324C397.911 40.81 398.818 41.49 399.044 42.85C399.384 44.21 399.554 45.74 399.554 47.44C398.761 49.14 397.798 49.99 396.664 49.99C395.531 49.8767 394.398 49.5933 393.264 49.14C392.244 48.6867 391.338 48.46 390.544 48.46C389.864 48.3467 389.524 49.14 389.524 50.84V137.88C389.524 138.787 389.638 139.297 389.864 139.41C390.204 139.41 390.601 139.297 391.054 139.07C391.508 138.843 392.074 138.447 392.754 137.88C393.661 136.973 394.511 136.52 395.304 136.52C396.211 136.407 396.948 136.463 397.514 136.69C398.194 137.03 398.874 137.427 399.554 137.88C401.254 139.467 402.104 140.543 402.104 141.11C402.104 141.677 401.254 142.81 399.554 144.51C397.854 145.303 396.324 145.757 394.964 145.87C393.718 145.983 392.471 145.927 391.224 145.7C389.978 145.473 388.674 145.19 387.314 144.85C386.068 144.623 384.594 144.51 382.894 144.51C381.194 144.51 379.721 144.793 378.474 145.36C377.228 145.927 376.038 146.323 374.904 146.55C373.884 146.777 372.921 146.55 372.014 145.87C371.108 145.19 370.201 143.603 369.294 141.11C369.294 139.523 369.408 138.617 369.634 138.39C369.974 138.05 371.051 137.88 372.864 137.88C374.564 137.88 376.094 138.05 377.454 138.39C378.814 138.617 379.494 139.523 379.494 141.11C380.288 138.617 380.741 136.293 380.854 134.14C381.081 131.987 381.194 129.89 381.194 127.85C381.194 125.697 381.251 123.543 381.364 121.39C381.478 119.237 381.988 116.913 382.894 114.42V70.9L379.494 50.84C376.888 55.0333 374.848 59.5667 373.374 64.44C372.014 69.3133 370.768 74.4133 369.634 79.74C368.614 84.9533 367.594 90.2233 366.574 95.55C365.668 100.877 364.364 106.033 362.664 111.02C361.078 112.72 359.434 113.74 357.734 114.08C356.034 114.307 354.391 114.42 352.804 114.42C351.104 112.72 349.914 110.907 349.234 108.98C348.668 106.94 348.158 104.843 347.704 102.69C347.364 100.537 346.854 98.4967 346.174 96.57C345.494 94.53 344.304 92.66 342.604 90.96C340.904 84.3867 338.638 77.7567 335.804 71.07C333.084 64.27 330.931 57.5267 329.344 50.84V137.88C329.911 139.013 330.591 139.637 331.384 139.75C332.291 139.863 333.198 139.807 334.104 139.58C335.011 139.353 335.861 139.07 336.654 138.73C337.561 138.39 338.298 138.277 338.864 138.39C339.431 138.503 339.771 139.013 339.884 139.92C339.998 140.827 339.771 142.357 339.204 144.51V147.74C337.504 146.607 335.578 146.04 333.424 146.04C331.384 146.153 329.231 146.38 326.964 146.72C324.698 147.173 322.431 147.683 320.164 148.25C317.898 148.817 315.801 148.987 313.874 148.76C311.948 148.647 310.248 148.023 308.774 146.89C307.414 145.87 306.451 143.943 305.884 141.11C306.678 140.317 307.471 139.58 308.264 138.9C309.171 138.107 310.021 137.483 310.814 137.03C311.721 136.577 312.571 136.407 313.364 136.52C314.158 136.633 315.008 137.087 315.914 137.88L319.314 141.11C321.014 140.317 321.921 139.353 322.034 138.22C322.261 136.973 322.148 135.727 321.694 134.48C321.354 133.233 320.844 132.043 320.164 130.91C319.598 129.777 319.314 128.757 319.314 127.85V50.84H322.714C321.014 50.0467 319.484 49.7633 318.124 49.99C316.878 50.1033 315.688 50.2733 314.554 50.5C313.534 50.6133 312.571 50.5567 311.664 50.33C310.871 50.1033 310.078 49.14 309.284 47.44C308.378 46.6467 307.868 45.8533 307.754 45.06C307.754 44.1533 307.981 43.4167 308.434 42.85C308.888 42.2833 309.454 41.83 310.134 41.49C310.928 41.0367 311.721 40.81 312.514 40.81C314.214 40.0167 315.914 39.7333 317.614 39.96C319.314 40.0733 320.958 40.3567 322.544 40.81C324.244 41.15 325.888 41.4333 327.474 41.66C329.174 41.8867 330.874 41.6033 332.574 40.81C333.368 40.0167 333.991 39.7333 334.444 39.96C335.011 40.1867 335.351 40.7533 335.464 41.66C335.691 42.4533 335.804 43.4167 335.804 44.55C335.918 45.6833 335.974 46.6467 335.974 47.44ZM449.25 40.13V43.53C448.457 45.23 447.437 46.1933 446.19 46.42C444.944 46.6467 443.584 46.6467 442.11 46.42C440.75 46.1933 439.22 46.0233 437.52 45.91C435.934 45.6833 434.29 45.9667 432.59 46.76V80.25C434.29 81.95 435.14 84.2167 435.14 87.05C435.14 89.77 434.29 91.98 432.59 93.68C433.157 96.5133 433.497 99.4033 433.61 102.35C433.724 105.183 433.78 108.017 433.78 110.85C433.894 113.683 434.064 116.46 434.29 119.18C434.517 121.787 435.027 124.28 435.82 126.66C436.727 128.927 437.974 130.967 439.56 132.78C441.147 134.593 443.3 136.067 446.02 137.2C447.72 138.107 449.364 138.617 450.95 138.73C452.65 138.73 454.294 138.673 455.88 138.56C457.58 138.333 459.224 138.05 460.81 137.71C462.51 137.37 464.21 137.2 465.91 137.2C467.61 136.407 468.914 135.557 469.82 134.65C470.84 133.743 471.634 132.78 472.2 131.76C472.88 130.74 473.447 129.607 473.9 128.36C474.467 127 475.204 125.47 476.11 123.77V83.65C476.11 81.1567 475.94 78.3233 475.6 75.15C475.26 71.8633 474.977 68.5767 474.75 65.29C474.637 61.89 474.58 58.6033 474.58 55.43C474.694 52.2567 475.204 49.3667 476.11 46.76H462.68C462.68 45.9667 462.51 45.3433 462.17 44.89C461.83 44.4367 461.434 43.9833 460.98 43.53C460.527 43.0767 460.13 42.6233 459.79 42.17C459.45 41.7167 459.28 41.0367 459.28 40.13C460.074 39.3367 460.867 38.8833 461.66 38.77C462.567 38.6567 463.417 38.7133 464.21 38.94C465.117 39.0533 465.967 39.28 466.76 39.62C467.667 39.96 468.574 40.13 469.48 40.13H499.4C499.4 41.0367 499.344 41.7167 499.23 42.17C499.23 42.6233 499.117 43.0767 498.89 43.53C498.777 43.9833 498.437 44.4367 497.87 44.89C497.417 45.3433 496.794 45.9667 496 46.76C495.207 46.76 494.187 46.6467 492.94 46.42C491.807 46.08 490.617 45.7967 489.37 45.57C488.124 45.3433 486.877 45.2867 485.63 45.4C484.497 45.5133 483.534 45.9667 482.74 46.76V123.77C481.154 128.87 478.49 133.63 474.75 138.05C471.124 142.47 465.967 145.53 459.28 147.23C454.294 147.23 449.817 146.493 445.85 145.02C441.997 143.66 437.577 142.187 432.59 140.6C431.004 137.313 429.474 133.97 428 130.57C426.527 127.057 425.79 123.657 425.79 120.37V60.36C425.79 59.5667 425.96 58.5467 426.3 57.3C426.64 56.0533 426.924 54.8067 427.15 53.56C427.377 52.3133 427.434 51.1233 427.32 49.99C427.207 48.7433 426.697 47.6667 425.79 46.76C424.09 45.9667 422.447 45.8533 420.86 46.42C419.274 46.8733 417.744 47.44 416.27 48.12C414.797 48.6867 413.437 49.0267 412.19 49.14C410.944 49.2533 409.924 48.46 409.13 46.76C409.13 45.06 409.3 43.8133 409.64 43.02C410.094 42.1133 410.604 41.4333 411.17 40.98C411.85 40.5267 412.587 40.3 413.38 40.3C414.174 40.1867 414.967 40.13 415.76 40.13H449.25ZM535.857 40.13C538.351 43.53 540.447 47.1 542.147 50.84C543.961 54.4667 545.604 58.15 547.077 61.89C548.551 65.63 549.967 69.37 551.327 73.11C552.687 76.7367 554.217 80.25 555.917 83.65C556.711 85.35 557.674 87.05 558.807 88.75C560.054 90.45 561.187 92.2633 562.207 94.19C563.227 96.0033 564.077 97.9867 564.757 100.14C565.551 102.293 565.947 104.617 565.947 107.11C567.647 110.51 569.291 113.91 570.877 117.31C572.577 120.597 574.277 123.883 575.977 127.17C577.677 122.183 578.527 117.763 578.527 113.91C578.527 109.943 577.677 105.41 575.977 100.31V56.79C575.977 55.9967 576.147 55.2033 576.487 54.41C576.827 53.5033 577.054 52.6533 577.167 51.86C577.394 50.9533 577.451 50.1033 577.337 49.31C577.224 48.4033 576.771 47.4967 575.977 46.59C575.071 46.59 574.051 46.76 572.917 47.1C571.784 47.3267 570.537 47.4967 569.177 47.61C567.931 47.61 566.684 47.3267 565.437 46.76C564.304 46.1933 563.341 45.06 562.547 43.36C563.454 43.36 564.077 43.2467 564.417 43.02C564.871 42.68 565.211 42.2833 565.437 41.83C565.664 41.3767 565.834 40.81 565.947 40.13C568.441 40.9233 570.934 41.2067 573.427 40.98C576.034 40.7533 578.584 40.47 581.077 40.13C583.571 39.6767 586.064 39.3367 588.557 39.11C591.164 38.8833 593.714 39.2233 596.207 40.13C596.207 41.6033 596.717 42.5667 597.737 43.02C598.191 43.2467 598.757 43.36 599.437 43.36C598.644 45.9667 597.624 47.44 596.377 47.78C595.244 48.12 594.054 48.2333 592.807 48.12C591.561 47.8933 590.314 47.78 589.067 47.78C587.934 47.6667 586.971 48.46 586.177 50.16C586.177 56.96 586.007 64.3833 585.667 72.43C585.441 80.4767 584.477 88.6933 582.777 97.08C583.571 100.48 584.194 104.22 584.647 108.3C585.214 112.267 585.554 116.347 585.667 120.54C585.894 124.733 586.007 128.87 586.007 132.95C586.121 137.03 586.177 140.77 586.177 144.17C585.271 144.963 584.364 145.417 583.457 145.53C582.664 145.757 581.814 145.87 580.907 145.87C580.114 145.87 579.264 145.927 578.357 146.04C577.564 146.153 576.771 146.607 575.977 147.4C572.691 140.6 569.914 133.347 567.647 125.64C565.381 117.82 562.604 110.51 559.317 103.71C559.317 101.217 558.581 98.8933 557.107 96.74C555.747 94.4733 554.217 92.2067 552.517 89.94C550.931 87.6733 549.401 85.2367 547.927 82.63C546.567 80.0233 545.887 77.02 545.887 73.62C544.187 71.92 542.827 70.05 541.807 68.01C540.901 65.8567 539.994 63.6467 539.087 61.38C538.294 59.1133 537.387 56.7333 536.367 54.24C535.461 51.7467 534.157 49.1967 532.457 46.59H529.057C529.057 54.1833 529.227 61.7767 529.567 69.37C529.907 76.9633 530.134 84.67 530.247 92.49C530.474 100.197 530.531 108.073 530.417 116.12C530.304 124.053 529.851 132.213 529.057 140.6H542.487C543.394 140.6 543.847 140.827 543.847 141.28C543.961 141.62 543.904 142.017 543.677 142.47C543.337 142.923 542.941 143.49 542.487 144.17C539.994 144.963 537.501 145.417 535.007 145.53C532.514 145.757 529.964 145.87 527.357 145.87C524.864 145.87 522.371 145.927 519.877 146.04C517.384 146.153 514.891 146.607 512.397 147.4C511.491 147.4 510.754 147.343 510.187 147.23C509.734 147.23 509.281 147.117 508.827 146.89C508.374 146.777 507.921 146.493 507.467 146.04C507.014 145.587 506.391 144.963 505.597 144.17L508.827 137.2C509.734 136.407 510.754 136.123 511.887 136.35C513.134 136.577 514.381 136.917 515.627 137.37C516.874 137.71 518.064 137.993 519.197 138.22C520.444 138.447 521.521 138.107 522.427 137.2V83.65C521.521 80.25 521.181 76.9067 521.407 73.62C521.634 70.3333 521.917 67.1033 522.257 63.93C522.711 60.7567 523.051 57.7533 523.277 54.92C523.504 51.9733 523.221 49.1967 522.427 46.59C520.727 45.7967 519.197 45.6833 517.837 46.25C516.591 46.7033 515.457 47.1567 514.437 47.61C513.417 48.0633 512.454 48.12 511.547 47.78C510.641 47.44 509.734 45.9667 508.827 43.36C508.827 40.8667 509.394 39.45 510.527 39.11C511.661 38.77 513.077 38.8267 514.777 39.28C516.477 39.62 518.291 40.0733 520.217 40.64C522.257 41.0933 524.127 40.9233 525.827 40.13C525.827 40.9233 525.997 41.4333 526.337 41.66C526.791 41.7733 527.301 41.83 527.867 41.83C528.434 41.83 529.114 41.8867 529.907 42C530.701 42.1133 531.551 42.5667 532.457 43.36C532.457 41.8867 533.024 40.9233 534.157 40.47C534.611 40.2433 535.177 40.13 535.857 40.13ZM694.603 42.68C694.603 45.2867 694.943 47.8367 695.623 50.33C696.303 52.8233 696.813 55.26 697.153 57.64C697.606 60.02 697.719 62.2867 697.493 64.44C697.266 66.5933 696.303 68.52 694.603 70.22C693.696 70.22 693.016 70.22 692.563 70.22C692.109 70.1067 691.656 69.9933 691.203 69.88C690.749 69.6533 690.239 69.3133 689.673 68.86C689.219 68.4067 688.539 67.7267 687.633 66.82V46.08H636.293L632.893 73.45C633.686 74.3567 634.139 75.2633 634.253 76.17C634.479 77.0767 634.593 78.0967 634.593 79.23C634.593 80.25 634.649 81.44 634.763 82.8C634.876 84.16 635.386 85.69 636.293 87.39C639.693 89.09 643.829 89.8267 648.703 89.6C653.576 89.26 658.563 87.3333 663.663 83.82C663.663 83.0267 663.493 82.0067 663.153 80.76C662.813 79.5133 662.529 78.2667 662.303 77.02C662.189 75.66 662.133 74.4133 662.133 73.28C662.246 72.0333 662.756 71.0133 663.663 70.22C665.363 71.0133 666.666 72.2033 667.573 73.79C668.593 75.3767 669.329 77.02 669.783 78.72C670.236 80.42 670.463 82.0633 670.463 83.65C670.576 85.2367 670.633 86.4833 670.633 87.39C669.726 89.09 669.329 90.96 669.443 93C669.669 95.04 669.896 97.1367 670.123 99.29C670.349 101.443 670.293 103.597 669.953 105.75C669.726 107.79 668.763 109.66 667.063 111.36C665.363 110.567 664.229 109.547 663.663 108.3C663.096 106.94 662.813 105.523 662.813 104.05C662.813 102.577 662.926 100.99 663.153 99.29C663.493 97.59 663.663 95.89 663.663 94.19H660.263C658.563 94.19 656.636 94.02 654.483 93.68C652.443 93.34 650.346 93.1133 648.193 93C646.153 92.7733 644.056 92.7167 641.903 92.83C639.863 92.9433 637.993 93.3967 636.293 94.19V138.9H684.403C686.103 136.293 687.236 133.743 687.803 131.25C688.369 128.643 688.766 126.207 688.993 123.94C689.219 121.56 689.389 119.293 689.503 117.14C689.729 114.987 690.296 113.06 691.203 111.36C691.203 110.453 691.373 109.83 691.713 109.49C692.053 109.037 692.449 108.697 692.903 108.47C693.356 108.243 693.923 108.073 694.603 107.96C696.303 110.567 697.266 113.343 697.493 116.29C697.719 119.237 697.606 122.183 697.153 125.13C696.813 128.077 696.303 131.023 695.623 133.97C694.943 136.917 694.603 139.637 694.603 142.13C693.696 143.83 692.449 144.793 690.863 145.02C689.389 145.36 687.803 145.417 686.103 145.19C684.403 144.963 682.759 144.737 681.173 144.51C679.586 144.397 678.339 144.793 677.433 145.7H608.753C608.753 144.793 608.583 144.283 608.243 144.17C607.903 144.057 607.619 144 607.393 144C607.279 144 607.223 143.943 607.223 143.83C607.336 143.603 607.846 143.037 608.753 142.13C608.753 140.43 609.489 139.467 610.963 139.24C612.549 139.013 614.363 139.013 616.403 139.24C618.556 139.467 620.823 139.693 623.203 139.92C625.583 140.033 627.623 139.693 629.323 138.9C630.229 138.107 630.569 137.257 630.343 136.35C630.116 135.443 629.776 134.423 629.323 133.29C628.983 132.157 628.643 130.967 628.303 129.72C628.076 128.36 628.416 126.83 629.323 125.13V46.08C627.623 45.2867 625.753 45.0033 623.713 45.23C621.673 45.3433 619.576 45.5133 617.423 45.74C615.269 45.9667 613.116 45.9667 610.963 45.74C608.923 45.4 607.053 44.38 605.353 42.68C608.866 40.98 612.266 40.0167 615.553 39.79C618.953 39.45 622.409 39.28 625.923 39.28H687.633C688.539 39.28 689.219 39.3367 689.673 39.45C690.239 39.45 690.749 39.5633 691.203 39.79C691.656 39.9033 692.109 40.2433 692.563 40.81C693.016 41.2633 693.696 41.8867 694.603 42.68ZM845.7 40.47C843.66 42.6233 841.563 44.04 839.41 44.72C837.37 45.2867 835.273 45.6833 833.12 45.91C831.08 46.0233 828.983 46.1933 826.83 46.42C824.79 46.6467 822.75 47.4967 820.71 48.97C815.156 53.05 810.396 57.64 806.43 62.74C802.576 67.7267 799.913 72.3167 798.44 76.51C797.193 79.3433 795.946 82.2333 794.7 85.18C793.566 88.1267 793 91.6967 793 95.89C794.473 95.89 795.833 95.4367 797.08 94.53C798.44 93.6233 799.856 93.17 801.33 93.17C802.01 91.81 802.973 90.7333 804.22 89.94C805.58 89.1467 807.11 88.58 808.81 88.24C810.623 87.9 812.55 87.73 814.59 87.73C816.63 87.6167 818.67 87.56 820.71 87.56C823.43 87.56 826.206 88.1833 829.04 89.43C831.873 90.5633 834.65 91.81 837.37 93.17C841.563 96.0033 844.793 99.9133 847.06 104.9C849.326 109.887 849.78 115.213 848.42 120.88C847.06 125.073 845.53 128.983 843.83 132.61C842.243 136.237 840.09 138.787 837.37 140.26C831.703 144.453 826.093 146.663 820.54 146.89C815.1 147.117 809.603 145.87 804.05 143.15C800.536 141.677 797.703 139.807 795.55 137.54C793.396 135.16 791.64 132.497 790.28 129.55C788.92 126.49 787.786 123.317 786.88 120.03C786.086 116.63 785.35 113.173 784.67 109.66C784.67 102.747 785.35 96.4567 786.71 90.79C788.183 85.01 790.28 79.3433 793 73.79C794.473 72.43 795.436 70.5033 795.89 68.01C796.343 65.4033 797.193 62.6833 798.44 59.85C801.273 56.45 804.22 53.5033 807.28 51.01C810.453 48.4033 813.683 46.1933 816.97 44.38C820.256 42.4533 823.6 40.7533 827 39.28C830.513 37.6933 833.97 36.22 837.37 34.86C838.05 34.86 838.843 35.03 839.75 35.37C840.77 35.71 841.676 36.1633 842.47 36.73C843.376 37.1833 844.113 37.75 844.68 38.43C845.36 39.11 845.7 39.79 845.7 40.47ZM837.37 104.22C837.37 102.86 836.916 101.67 836.01 100.65C835.103 99.5167 833.913 98.5533 832.44 97.76C831.08 96.8533 829.606 96.06 828.02 95.38C826.433 94.5867 824.96 93.85 823.6 93.17C820.766 92.49 818.103 92.32 815.61 92.66C813.23 92.8867 810.906 93.4533 808.64 94.36C806.373 95.1533 804.163 96.1733 802.01 97.42C799.97 98.6667 797.93 99.97 795.89 101.33C793.85 102.803 792.66 104.39 792.32 106.09C791.98 107.79 791.98 109.547 792.32 111.36C792.66 113.06 793 114.76 793.34 116.46C793.793 118.047 793.68 119.52 793 120.88C793.68 121.56 794.303 122.127 794.87 122.58C795.55 123.033 796.06 123.543 796.4 124.11C796.74 124.563 796.91 125.187 796.91 125.98C796.91 126.773 796.57 127.85 795.89 129.21C799.97 133.29 804.163 136.18 808.47 137.88C812.89 139.467 817.933 140.26 823.6 140.26C826.32 138.787 828.926 136.803 831.42 134.31C833.913 131.817 835.896 129.21 837.37 126.49C838.05 125.13 838.673 123.6 839.24 121.9C839.806 120.087 840.146 118.273 840.26 116.46C840.486 114.533 840.373 112.55 839.92 110.51C839.58 108.357 838.73 106.26 837.37 104.22ZM934.05 73.45C933.144 73.45 932.634 73.6767 932.52 74.13C932.52 74.47 932.577 74.98 932.69 75.66C932.917 76.2267 933.2 76.9633 933.54 77.87C933.88 78.6633 934.05 79.4567 934.05 80.25C931.557 84.4433 928.667 87.56 925.38 89.6C922.207 91.5267 918.977 93 915.69 94.02C912.404 95.04 909.117 95.89 905.83 96.57C902.657 97.25 899.824 98.44 897.33 100.14C894.95 100.14 892.854 100.537 891.04 101.33C889.34 102.01 887.754 102.86 886.28 103.88C884.807 104.9 883.39 106.033 882.03 107.28C880.67 108.413 879.14 109.377 877.44 110.17C876.647 111.87 875.854 113.74 875.06 115.78C874.267 117.707 873.417 119.747 872.51 121.9C871.717 123.94 870.867 125.98 869.96 128.02C869.167 129.947 868.374 131.703 867.58 133.29H910.76C913.254 133.29 915.69 133.46 918.07 133.8C920.564 134.14 922.944 134.423 925.21 134.65C927.59 134.763 929.8 134.82 931.84 134.82C933.88 134.707 935.75 134.197 937.45 133.29C939.037 134.99 939.83 136.123 939.83 136.69C939.83 137.257 939.037 138.333 937.45 139.92C936.544 141.62 935.524 142.753 934.39 143.32C933.257 143.887 932.01 144.17 930.65 144.17C929.404 144.283 928.157 144.227 926.91 144C925.777 143.66 924.814 143.49 924.02 143.49C918.24 142.583 912.744 142.243 907.53 142.47C902.43 142.697 897.387 143.037 892.4 143.49C887.414 143.83 882.37 144.113 877.27 144.34C872.17 144.567 866.674 144.283 860.78 143.49C859.194 138.39 858.91 133.347 859.93 128.36C861.064 123.373 862.48 118.443 864.18 113.57C866.674 111.87 868.997 110.057 871.15 108.13C873.417 106.09 875.684 104.163 877.95 102.35C880.217 100.423 882.654 98.7233 885.26 97.25C887.867 95.6633 890.814 94.4167 894.1 93.51C895.8 92.7167 897.444 91.7533 899.03 90.62C900.73 89.4867 902.374 88.5233 903.96 87.73C905.66 86.8233 907.304 86.2567 908.89 86.03C910.59 85.8033 912.29 86.0867 913.99 86.88C915.69 85.18 917.334 83.65 918.92 82.29C920.507 80.93 921.924 79.57 923.17 78.21C924.53 76.7367 925.55 75.0933 926.23 73.28C927.024 71.4667 927.42 69.3133 927.42 66.82H930.65C934.05 66.82 935.864 67.5567 936.09 69.03C936.43 70.39 935.75 71.8633 934.05 73.45ZM930.65 50.33C930.65 52.03 931.104 53.56 932.01 54.92C933.03 56.1667 933.824 57.4133 934.39 58.66C935.07 59.9067 935.24 61.21 934.9 62.57C934.56 63.8167 933.144 65.2333 930.65 66.82C930.65 65.2333 930.48 63.76 930.14 62.4C929.914 61.04 929.007 60.36 927.42 60.36C927.42 59.5667 927.024 58.7733 926.23 57.98C925.55 57.0733 924.7 56.2233 923.68 55.43C922.66 54.5233 921.527 53.6733 920.28 52.88C919.147 51.9733 918.184 51.1233 917.39 50.33C914.104 47.0433 910.08 44.72 905.32 43.36C900.674 41.8867 895.8 42 890.7 43.7C889 43.7 887.47 44.21 886.11 45.23C884.864 46.1367 883.674 47.27 882.54 48.63C881.407 49.8767 880.274 51.18 879.14 52.54C878.007 53.7867 876.874 54.8067 875.74 55.6C874.607 56.28 873.36 56.5633 872 56.45C870.64 56.2233 869.167 55.26 867.58 53.56C869.28 50.2733 871.32 47.5533 873.7 45.4C876.194 43.1333 878.857 41.32 881.69 39.96C884.637 38.4867 887.697 37.2967 890.87 36.39C894.157 35.37 897.444 34.4633 900.73 33.67C907.304 35.2567 913.084 37.1833 918.07 39.45C923.17 41.7167 927.364 45.3433 930.65 50.33Z" fill="#090F14"/>
</svg>
