<svg width="730" height="170" viewBox="0 0 730 170" fill="none" xmlns="http://www.w3.org/2000/svg">
<g id="Kommune" filter="url(#filter0_d_2_2)">
<path d="M20.4 40.13C22.1 40.13 23.97 40.0167 26.01 39.79C28.05 39.45 30.09 39.28 32.13 39.28C34.2833 39.28 36.38 39.5633 38.42 40.13C40.46 40.6967 42.2733 41.83 43.86 43.53C44.6533 45.1167 44.71 46.08 44.03 46.42C43.4633 46.6467 42.4433 46.76 40.97 46.76C39.61 46.76 37.9667 46.93 36.04 47.27C34.1133 47.4967 32.3 48.4033 30.6 49.99C30.6 51.69 30.77 53.56 31.11 55.6C31.45 57.64 31.6767 59.7367 31.79 61.89C32.0167 64.0433 32.0733 66.14 31.96 68.18C31.8467 70.1067 31.3933 71.92 30.6 73.62C31.3933 74.5267 31.6767 75.7733 31.45 77.36C31.3367 78.8333 31.0533 80.42 30.6 82.12C30.1467 83.82 29.8067 85.4633 29.58 87.05C29.3533 88.6367 29.6933 89.8267 30.6 90.62V97.42C34.7933 93.2267 38.42 89.0333 41.48 84.84C44.6533 80.5333 47.7133 76.2833 50.66 72.09C53.6067 67.8967 56.6667 63.7033 59.84 59.51C63.0133 55.3167 66.6967 51.1233 70.89 46.93C69.9833 46.93 68.9633 47.0433 67.83 47.27C66.6967 47.4967 65.62 47.61 64.6 47.61C63.58 47.61 62.6733 47.3267 61.88 46.76C61.2 46.1933 60.86 45.1167 60.86 43.53C61.6533 42.7367 62.6733 42.2833 63.92 42.17C65.1667 41.9433 66.5267 41.83 68 41.83C69.4733 41.83 71.0033 41.7733 72.59 41.66C74.29 41.5467 75.99 41.0367 77.69 40.13H94.52L97.92 43.53C97.92 45.23 97.75 46.76 97.41 48.12C97.1833 49.3667 96.22 49.99 94.52 49.99C93.6133 49.99 92.5933 49.82 91.46 49.48C90.3267 49.14 89.08 48.8 87.72 48.46C86.4733 48.12 85.2267 47.78 83.98 47.44C82.8467 47.1 81.8833 46.93 81.09 46.93C78.4833 50.2167 76.1033 53.39 73.95 56.45C71.7967 59.3967 69.6433 62.23 67.49 64.95C65.45 67.67 63.2967 70.3333 61.03 72.94C58.8767 75.4333 56.5533 77.9267 54.06 80.42C54.06 82.12 54.4 83.82 55.08 85.52C55.8733 87.22 56.78 88.92 57.8 90.62C58.9333 92.32 60.0667 94.02 61.2 95.72C62.3333 97.3067 63.3533 98.95 64.26 100.65C65.0533 102.35 65.8467 104.22 66.64 106.26C67.5467 108.3 68.51 110.397 69.53 112.55C70.6633 114.59 71.8533 116.63 73.1 118.67C74.46 120.71 75.99 122.523 77.69 124.11C77.69 125.017 78.03 125.923 78.71 126.83C79.39 127.623 80.1267 128.587 80.92 129.72C81.8267 130.74 82.62 131.93 83.3 133.29C84.0933 134.537 84.49 136.01 84.49 137.71H87.89C88.6833 137.71 89.4767 137.54 90.27 137.2C91.1767 136.86 92.0267 136.633 92.82 136.52C93.7267 136.293 94.5767 136.237 95.37 136.35C96.1633 136.463 97.0133 136.917 97.92 137.71C99.62 137.71 101.037 138.447 102.17 139.92C103.303 141.28 103.02 142.81 101.32 144.51C98.7133 146.21 95.9367 147.117 92.99 147.23C90.1567 147.457 87.1533 147.343 83.98 146.89C80.8067 146.55 77.5767 146.04 74.29 145.36C71.0033 144.793 67.66 144.51 64.26 144.51V141.11C65.0533 140.317 65.8467 139.863 66.64 139.75C67.5467 139.523 68.3967 139.41 69.19 139.41C70.0967 139.41 70.9467 139.353 71.74 139.24C72.5333 139.127 73.3833 138.617 74.29 137.71L54.06 104.05C54.06 102.35 53.8333 100.707 53.38 99.12C52.9267 97.5333 52.2467 96.1167 51.34 94.87C50.5467 93.6233 49.5267 92.6033 48.28 91.81C47.0333 91.0167 45.56 90.62 43.86 90.62C42.2733 93.1133 40.5167 95.6633 38.59 98.27C36.6633 100.877 34.9633 103.653 33.49 106.6C32.0167 109.547 30.94 112.72 30.26 116.12C29.58 119.52 29.6933 123.317 30.6 127.51C31.3933 128.417 31.6767 129.493 31.45 130.74C31.3367 131.873 31.1667 133.063 30.94 134.31C30.8267 135.557 30.8833 136.803 31.11 138.05C31.3367 139.297 32.3 140.317 34 141.11C37.2867 139.41 39.8933 138.73 41.82 139.07C43.7467 139.297 45.56 141.11 47.26 144.51L43.86 147.74C41.3667 147.74 39.2133 147.57 37.4 147.23C35.7 147.003 34 146.777 32.3 146.55C30.6 146.323 28.7867 146.267 26.86 146.38C25.0467 146.493 22.8933 146.947 20.4 147.74H17C16.32 148.42 15.7533 148.873 15.3 149.1C14.28 149.667 13.77 149.213 13.77 147.74C12.8633 147.74 11.8433 147.513 10.71 147.06C9.57667 146.72 8.55667 146.267 7.65 145.7C6.85667 145.133 6.29 144.453 5.95 143.66C5.72333 142.867 6.06333 142.017 6.97 141.11C7.53667 139.41 8.27333 138.39 9.18 138.05C10.0867 137.597 11.05 137.54 12.07 137.88C13.09 138.107 14.1667 138.503 15.3 139.07C16.5467 139.523 17.68 139.807 18.7 139.92C19.72 139.92 20.6833 139.58 21.59 138.9C22.4967 138.107 23.2333 136.577 23.8 134.31L20.4 127.51V63.59C22.1 61.89 22.95 59.6233 22.95 56.79C22.95 53.9567 22.1 51.69 20.4 49.99C19.4933 49.1967 18.4733 49.0833 17.34 49.65C16.2067 50.1033 14.96 50.5567 13.6 51.01C12.3533 51.4633 11.1067 51.52 9.86 51.18C8.72667 50.84 7.76333 49.4233 6.97 46.93C6.97 45.23 7.08333 43.7 7.31 42.34C7.65 40.8667 8.67 40.13 10.37 40.13C11.1633 40.13 11.9567 39.96 12.75 39.62C13.6567 39.28 14.5067 39.0533 15.3 38.94C16.2067 38.7133 17.0567 38.6567 17.85 38.77C18.6433 38.8833 19.4933 39.3367 20.4 40.13ZM190.38 79.06C194.007 88.1267 195.65 97.1933 195.31 106.26C195.083 115.327 192.25 124.393 186.81 133.46C184.997 135.273 182.39 137.087 178.99 138.9C175.703 140.6 172.247 142.357 168.62 144.17C165.9 145.077 163.35 145.927 160.97 146.72C158.703 147.513 156.437 148.023 154.17 148.25C151.903 148.477 149.58 148.307 147.2 147.74C144.933 147.173 142.44 145.983 139.72 144.17H136.15C131.617 142.357 127.933 139.977 125.1 137.03C122.267 133.97 119.943 130.627 118.13 127C116.317 123.373 114.843 119.633 113.71 115.78C112.69 111.813 111.727 108.017 110.82 104.39C110.82 102.577 111.16 100.99 111.84 99.63C112.633 98.1567 113.483 96.74 114.39 95.38C115.41 94.02 116.26 92.66 116.94 91.3C117.733 89.8267 118.13 88.1833 118.13 86.37C119.037 82.7433 120.51 79.57 122.55 76.85C124.703 74.13 127.14 71.75 129.86 69.71C132.58 67.67 135.413 65.97 138.36 64.61C141.307 63.1367 144.14 61.9467 146.86 61.04C149.58 61.04 152.3 61.0967 155.02 61.21C157.74 61.21 160.46 61.4367 163.18 61.89C165.9 62.3433 168.62 63.08 171.34 64.1C174.06 65.12 176.78 66.5367 179.5 68.35L190.38 79.06ZM179.5 89.94C177.687 89.0333 176.27 87.9567 175.25 86.71C174.23 85.4633 173.267 84.2733 172.36 83.14C171.453 82.0067 170.49 81.0433 169.47 80.25C168.45 79.4567 167.033 79.06 165.22 79.06C162.5 78.1533 159.78 77.36 157.06 76.68C154.34 75.8867 151.62 75.49 148.9 75.49C146.18 75.49 143.46 76.0567 140.74 77.19C138.02 78.21 135.3 80.08 132.58 82.8C130.767 84.6133 129.52 86.4267 128.84 88.24C128.273 90.0533 127.99 91.98 127.99 94.02C127.99 96.06 128.103 98.27 128.33 100.65C128.67 102.917 128.84 105.41 128.84 108.13C128.84 110.85 129.237 113.513 130.03 116.12C130.937 118.727 132.07 121.163 133.43 123.43C134.79 125.697 136.32 127.737 138.02 129.55C139.833 131.25 141.647 132.553 143.46 133.46C148.9 135.273 154.17 136.01 159.27 135.67C164.37 135.33 168.733 133.347 172.36 129.72C175.08 127 177.12 123.94 178.48 120.54C179.953 117.027 180.917 113.457 181.37 109.83C181.823 106.203 181.823 102.69 181.37 99.29C181.03 95.7767 180.407 92.66 179.5 89.94ZM295.387 71.07C294.48 76.3967 293.914 81.78 293.687 87.22C293.574 92.5467 293.517 97.8167 293.517 103.03C293.517 108.13 293.46 113.173 293.347 118.16C293.234 123.033 292.724 127.737 291.817 132.27C292.724 133.177 293.97 133.743 295.557 133.97C297.144 134.083 298.617 134.253 299.977 134.48C301.337 134.707 302.357 135.16 303.037 135.84C303.717 136.407 303.604 137.597 302.697 139.41C303.604 141.11 303.887 142.3 303.547 142.98C303.32 143.547 302.867 143.943 302.187 144.17C301.507 144.397 300.77 144.567 299.977 144.68C299.297 144.907 298.957 145.473 298.957 146.38C297.71 145.813 296.18 145.53 294.367 145.53C292.554 145.643 290.627 145.813 288.587 146.04C286.66 146.267 284.734 146.38 282.807 146.38C280.994 146.493 279.464 146.267 278.217 145.7C277.084 145.133 276.347 144.113 276.007 142.64C275.78 141.053 276.29 138.787 277.537 135.84H281.107C282.92 134.027 283.94 132.383 284.167 130.91C284.394 129.437 284.394 127.907 284.167 126.32C284.054 124.733 283.884 123.033 283.657 121.22C283.544 119.293 283.94 116.97 284.847 114.25C283.94 111.53 283.544 108.81 283.657 106.09C283.884 103.37 284.054 100.65 284.167 97.93C284.394 95.21 284.394 92.5467 284.167 89.94C283.94 87.22 282.92 84.5 281.107 81.78C282.014 80.8733 282.524 79.7967 282.637 78.55C282.75 77.3033 282.694 76 282.467 74.64C282.24 73.28 281.957 71.9767 281.617 70.73C281.277 69.4833 281.107 68.4067 281.107 67.5C279.294 69.3133 277.48 70.9567 275.667 72.43C273.967 73.79 272.324 75.15 270.737 76.51C269.15 77.87 267.677 79.2867 266.317 80.76C265.07 82.12 263.994 83.7067 263.087 85.52C263.087 86.4267 262.86 87.5033 262.407 88.75C262.067 89.9967 261.67 91.3 261.217 92.66C260.877 94.02 260.48 95.3233 260.027 96.57C259.687 97.8167 259.517 98.8933 259.517 99.8V132.27C260.424 133.177 261.274 133.913 262.067 134.48C262.974 134.933 263.767 135.387 264.447 135.84C265.127 136.293 265.694 136.803 266.147 137.37C266.6 137.823 266.827 138.503 266.827 139.41C267.62 140.317 268.074 140.997 268.187 141.45C268.3 141.903 268.13 142.357 267.677 142.81C267.224 143.263 266.544 143.717 265.637 144.17C264.844 144.737 263.994 145.473 263.087 146.38C262.18 146.38 261.047 146.21 259.687 145.87C258.44 145.53 257.024 145.247 255.437 145.02C253.85 144.793 252.15 144.737 250.337 144.85C248.637 144.963 246.88 145.473 245.067 146.38C243.367 144.567 242.347 142.81 242.007 141.11C241.78 139.41 241.667 137.653 241.667 135.84C243.367 135.84 244.954 135.727 246.427 135.5C248.014 135.16 248.807 134.083 248.807 132.27C248.807 127.737 248.977 123.203 249.317 118.67C249.657 114.137 249.94 109.547 250.167 104.9C250.394 100.14 250.45 95.2667 250.337 90.28C250.224 85.2933 249.714 80.08 248.807 74.64C248.807 73.7333 248.58 72.8833 248.127 72.09C247.674 71.2967 247.107 70.6733 246.427 70.22C245.747 69.7667 244.954 69.5967 244.047 69.71C243.254 69.71 242.46 70.1633 241.667 71.07C237.134 73.79 233.62 77.1333 231.127 81.1C228.634 84.9533 226.82 89.26 225.687 94.02C224.554 98.6667 223.874 103.653 223.647 108.98C223.534 114.193 223.477 119.52 223.477 124.96C224.384 124.96 224.78 125.697 224.667 127.17C224.554 128.643 224.497 130.173 224.497 131.76C224.497 133.347 224.837 134.65 225.517 135.67C226.31 136.69 228.067 136.747 230.787 135.84C232.6 135.84 233.62 136.577 233.847 138.05C234.187 139.523 234.357 141.11 234.357 142.81C230.73 144.623 226.99 145.643 223.137 145.87C219.284 146.21 214.637 146.38 209.197 146.38L205.627 142.81C205.627 141.11 205.74 139.523 205.967 138.05C206.307 136.577 207.384 135.84 209.197 135.84C210.104 135.84 210.84 135.84 211.407 135.84C211.974 135.727 212.484 135.557 212.937 135.33C213.39 135.103 213.844 134.763 214.297 134.31C214.864 133.857 215.6 133.177 216.507 132.27C215.6 127.737 215.09 123.26 214.977 118.84C214.864 114.307 214.92 109.773 215.147 105.24C215.374 100.707 215.657 96.23 215.997 91.81C216.337 87.2767 216.507 82.7433 216.507 78.21C215.6 77.3033 214.524 76.7933 213.277 76.68C212.03 76.4533 210.84 76.2267 209.707 76C208.574 75.7733 207.61 75.3767 206.817 74.81C206.024 74.13 205.627 72.8833 205.627 71.07C205.627 69.2567 205.74 67.6133 205.967 66.14C206.307 64.6667 207.384 63.93 209.197 63.93C210.444 65.1767 211.804 65.97 213.277 66.31C214.864 66.5367 216.337 66.65 217.697 66.65C219.17 66.65 220.53 66.65 221.777 66.65C223.024 66.5367 223.987 66.7067 224.667 67.16C225.347 67.5 225.63 68.2367 225.517 69.37C225.404 70.5033 224.724 72.26 223.477 74.64H227.047C228.974 72.8267 231.58 70.4467 234.867 67.5C238.154 64.5533 241.554 62.1733 245.067 60.36C246.994 60.36 249.43 61.2667 252.377 63.08C255.324 64.78 257.704 67.4433 259.517 71.07V74.64C261.33 73.7333 262.974 72.4867 264.447 70.9C265.92 69.3133 267.394 67.7267 268.867 66.14C270.454 64.5533 272.21 63.1933 274.137 62.06C276.064 60.9267 278.387 60.36 281.107 60.36C282.014 61.2667 283.09 62.0033 284.337 62.57C285.697 63.1367 287 63.76 288.247 64.44C289.607 65.12 290.91 65.97 292.157 66.99C293.404 67.8967 294.48 69.2567 295.387 71.07ZM403.795 71.07C402.888 76.3967 402.322 81.78 402.095 87.22C401.982 92.5467 401.925 97.8167 401.925 103.03C401.925 108.13 401.868 113.173 401.755 118.16C401.642 123.033 401.132 127.737 400.225 132.27C401.132 133.177 402.378 133.743 403.965 133.97C405.552 134.083 407.025 134.253 408.385 134.48C409.745 134.707 410.765 135.16 411.445 135.84C412.125 136.407 412.012 137.597 411.105 139.41C412.012 141.11 412.295 142.3 411.955 142.98C411.728 143.547 411.275 143.943 410.595 144.17C409.915 144.397 409.178 144.567 408.385 144.68C407.705 144.907 407.365 145.473 407.365 146.38C406.118 145.813 404.588 145.53 402.775 145.53C400.962 145.643 399.035 145.813 396.995 146.04C395.068 146.267 393.142 146.38 391.215 146.38C389.402 146.493 387.872 146.267 386.625 145.7C385.492 145.133 384.755 144.113 384.415 142.64C384.188 141.053 384.698 138.787 385.945 135.84H389.515C391.328 134.027 392.348 132.383 392.575 130.91C392.802 129.437 392.802 127.907 392.575 126.32C392.462 124.733 392.292 123.033 392.065 121.22C391.952 119.293 392.348 116.97 393.255 114.25C392.348 111.53 391.952 108.81 392.065 106.09C392.292 103.37 392.462 100.65 392.575 97.93C392.802 95.21 392.802 92.5467 392.575 89.94C392.348 87.22 391.328 84.5 389.515 81.78C390.422 80.8733 390.932 79.7967 391.045 78.55C391.158 77.3033 391.102 76 390.875 74.64C390.648 73.28 390.365 71.9767 390.025 70.73C389.685 69.4833 389.515 68.4067 389.515 67.5C387.702 69.3133 385.888 70.9567 384.075 72.43C382.375 73.79 380.732 75.15 379.145 76.51C377.558 77.87 376.085 79.2867 374.725 80.76C373.478 82.12 372.402 83.7067 371.495 85.52C371.495 86.4267 371.268 87.5033 370.815 88.75C370.475 89.9967 370.078 91.3 369.625 92.66C369.285 94.02 368.888 95.3233 368.435 96.57C368.095 97.8167 367.925 98.8933 367.925 99.8V132.27C368.832 133.177 369.682 133.913 370.475 134.48C371.382 134.933 372.175 135.387 372.855 135.84C373.535 136.293 374.102 136.803 374.555 137.37C375.008 137.823 375.235 138.503 375.235 139.41C376.028 140.317 376.482 140.997 376.595 141.45C376.708 141.903 376.538 142.357 376.085 142.81C375.632 143.263 374.952 143.717 374.045 144.17C373.252 144.737 372.402 145.473 371.495 146.38C370.588 146.38 369.455 146.21 368.095 145.87C366.848 145.53 365.432 145.247 363.845 145.02C362.258 144.793 360.558 144.737 358.745 144.85C357.045 144.963 355.288 145.473 353.475 146.38C351.775 144.567 350.755 142.81 350.415 141.11C350.188 139.41 350.075 137.653 350.075 135.84C351.775 135.84 353.362 135.727 354.835 135.5C356.422 135.16 357.215 134.083 357.215 132.27C357.215 127.737 357.385 123.203 357.725 118.67C358.065 114.137 358.348 109.547 358.575 104.9C358.802 100.14 358.858 95.2667 358.745 90.28C358.632 85.2933 358.122 80.08 357.215 74.64C357.215 73.7333 356.988 72.8833 356.535 72.09C356.082 71.2967 355.515 70.6733 354.835 70.22C354.155 69.7667 353.362 69.5967 352.455 69.71C351.662 69.71 350.868 70.1633 350.075 71.07C345.542 73.79 342.028 77.1333 339.535 81.1C337.042 84.9533 335.228 89.26 334.095 94.02C332.962 98.6667 332.282 103.653 332.055 108.98C331.942 114.193 331.885 119.52 331.885 124.96C332.792 124.96 333.188 125.697 333.075 127.17C332.962 128.643 332.905 130.173 332.905 131.76C332.905 133.347 333.245 134.65 333.925 135.67C334.718 136.69 336.475 136.747 339.195 135.84C341.008 135.84 342.028 136.577 342.255 138.05C342.595 139.523 342.765 141.11 342.765 142.81C339.138 144.623 335.398 145.643 331.545 145.87C327.692 146.21 323.045 146.38 317.605 146.38L314.035 142.81C314.035 141.11 314.148 139.523 314.375 138.05C314.715 136.577 315.792 135.84 317.605 135.84C318.512 135.84 319.248 135.84 319.815 135.84C320.382 135.727 320.892 135.557 321.345 135.33C321.798 135.103 322.252 134.763 322.705 134.31C323.272 133.857 324.008 133.177 324.915 132.27C324.008 127.737 323.498 123.26 323.385 118.84C323.272 114.307 323.328 109.773 323.555 105.24C323.782 100.707 324.065 96.23 324.405 91.81C324.745 87.2767 324.915 82.7433 324.915 78.21C324.008 77.3033 322.932 76.7933 321.685 76.68C320.438 76.4533 319.248 76.2267 318.115 76C316.982 75.7733 316.018 75.3767 315.225 74.81C314.432 74.13 314.035 72.8833 314.035 71.07C314.035 69.2567 314.148 67.6133 314.375 66.14C314.715 64.6667 315.792 63.93 317.605 63.93C318.852 65.1767 320.212 65.97 321.685 66.31C323.272 66.5367 324.745 66.65 326.105 66.65C327.578 66.65 328.938 66.65 330.185 66.65C331.432 66.5367 332.395 66.7067 333.075 67.16C333.755 67.5 334.038 68.2367 333.925 69.37C333.812 70.5033 333.132 72.26 331.885 74.64H335.455C337.382 72.8267 339.988 70.4467 343.275 67.5C346.562 64.5533 349.962 62.1733 353.475 60.36C355.402 60.36 357.838 61.2667 360.785 63.08C363.732 64.78 366.112 67.4433 367.925 71.07V74.64C369.738 73.7333 371.382 72.4867 372.855 70.9C374.328 69.3133 375.802 67.7267 377.275 66.14C378.862 64.5533 380.618 63.1933 382.545 62.06C384.472 60.9267 386.795 60.36 389.515 60.36C390.422 61.2667 391.498 62.0033 392.745 62.57C394.105 63.1367 395.408 63.76 396.655 64.44C398.015 65.12 399.318 65.97 400.565 66.99C401.812 67.8967 402.888 69.2567 403.795 71.07ZM451.513 66.65V127.51C451.513 129.437 451.91 130.91 452.703 131.93C453.61 132.95 454.63 133.743 455.763 134.31C457.01 134.763 458.257 135.047 459.503 135.16C460.863 135.16 461.997 135.16 462.903 135.16C467.663 135.16 471.743 134.31 475.143 132.61C478.657 130.797 481.717 128.473 484.323 125.64C486.93 122.807 489.253 119.577 491.293 115.95C493.333 112.323 495.317 108.583 497.243 104.73V74.3C495.317 72.3733 493.617 71.1267 492.143 70.56C490.67 69.88 489.197 69.54 487.723 69.54C486.25 69.54 484.777 69.71 483.303 70.05C481.83 70.39 480.13 70.56 478.203 70.56V62.91C480.13 61.89 482.227 61.3233 484.493 61.21C486.76 61.0967 489.083 61.04 491.463 61.04C493.843 61.04 496.167 60.9833 498.433 60.87C500.7 60.6433 502.797 60.02 504.723 59C505.743 60.9267 506.31 63.08 506.423 65.46C506.537 67.7267 506.593 70.05 506.593 72.43C506.593 74.81 506.65 77.1333 506.763 79.4C506.99 81.6667 507.613 83.7633 508.633 85.69C506.707 91.47 505.573 97.8167 505.233 104.73C504.893 111.643 504.723 117.99 504.723 123.77C504.723 124.677 504.553 125.64 504.213 126.66C503.873 127.567 503.59 128.53 503.363 129.55C503.137 130.457 503.08 131.42 503.193 132.44C503.307 133.347 503.817 134.253 504.723 135.16C506.65 136.067 508.52 136.237 510.333 135.67C512.26 135.103 514.017 134.593 515.603 134.14C517.303 133.687 518.833 133.687 520.193 134.14C521.667 134.48 522.857 136.067 523.763 138.9C523.763 140.827 522.97 142.583 521.383 144.17C519.91 145.757 518.21 146.55 516.283 146.55C515.263 146.55 513.847 146.72 512.033 147.06C510.333 147.4 508.407 147.57 506.253 147.57C504.1 147.57 501.89 147.23 499.623 146.55C497.357 145.983 495.26 144.737 493.333 142.81V131.42C490.5 134.253 487.44 136.86 484.153 139.24C480.867 141.507 477.41 143.32 473.783 144.68C470.27 146.153 466.643 147.06 462.903 147.4C459.163 147.853 455.367 147.57 451.513 146.55C449.587 145.643 448.057 144.51 446.923 143.15C445.903 141.79 445.053 140.43 444.373 139.07C443.693 137.597 443.013 136.18 442.333 134.82C441.767 133.46 441.03 132.327 440.123 131.42V81.95C440.123 80.93 440.293 79.9667 440.633 79.06C440.973 78.04 441.257 77.0767 441.483 76.17C441.71 75.2633 441.767 74.3567 441.653 73.45C441.54 72.43 441.03 71.4667 440.123 70.56C438.197 69.54 436.27 69.3133 434.343 69.88C432.53 70.4467 430.773 70.9567 429.073 71.41C427.487 71.8633 425.957 71.92 424.483 71.58C423.123 71.1267 421.99 69.4833 421.083 66.65C423.01 63.8167 425.107 62.0033 427.373 61.21C429.64 60.4167 431.963 60.02 434.343 60.02C436.723 60.02 439.047 60.1333 441.313 60.36C443.693 60.4733 445.847 60.02 447.773 59L451.513 66.65ZM563.824 66.99C563.824 67.8967 563.654 68.86 563.314 69.88C562.974 70.7867 562.69 71.6933 562.464 72.6C562.237 73.5067 562.18 74.47 562.294 75.49C562.407 76.3967 562.917 77.36 563.824 78.38C564.844 78.38 565.807 77.9833 566.714 77.19C567.734 76.3967 568.697 75.5467 569.604 74.64C570.624 73.62 571.587 72.7133 572.494 71.92C573.514 71.1267 574.477 70.73 575.384 70.73C576.29 67.8967 577.65 65.9133 579.464 64.78C581.277 63.5333 583.26 62.6833 585.414 62.23C587.567 61.6633 589.72 61.2667 591.874 61.04C594.14 60.8133 596.237 60.2467 598.164 59.34C599.977 59.34 601.79 59.7933 603.604 60.7C605.53 61.4933 607.344 62.5133 609.044 63.76C610.744 64.8933 612.274 66.14 613.634 67.5C614.994 68.7467 616.184 69.8233 617.204 70.73C618.11 76.3967 618.62 81.8933 618.734 87.22C618.847 92.5467 618.79 97.8167 618.564 103.03C618.337 108.243 618.054 113.513 617.714 118.84C617.374 124.167 617.204 129.663 617.204 135.33H624.684C625.704 134.31 626.497 133.743 627.064 133.63C627.63 133.517 628.14 133.63 628.594 133.97C629.047 134.197 629.5 134.48 629.954 134.82C630.52 135.16 631.257 135.33 632.164 135.33C634.09 135.33 635.224 136.123 635.564 137.71C635.904 139.183 636.074 140.883 636.074 142.81C634.147 144.737 632.05 145.983 629.784 146.55C627.517 147.23 625.194 147.57 622.814 147.57C620.434 147.57 618.11 147.4 615.844 147.06C613.577 146.72 611.48 146.55 609.554 146.55C608.534 145.643 607.004 145.247 604.964 145.36C602.924 145.587 600.827 145.813 598.674 146.04C596.52 146.38 594.65 146.38 593.064 146.04C591.477 145.813 590.684 144.737 590.684 142.81C590.684 140.883 590.797 139.183 591.024 137.71C591.364 136.123 592.44 135.33 594.254 135.33H609.554C607.627 129.663 606.664 123.997 606.664 118.33C606.777 112.663 606.947 107.11 607.174 101.67C607.4 96.1167 607.287 90.79 606.834 85.69C606.38 80.4767 604.737 75.49 601.904 70.73C599.977 69.8233 597.88 69.37 595.614 69.37C593.347 69.2567 591.024 69.5967 588.644 70.39C586.264 71.07 583.884 72.09 581.504 73.45C579.237 74.81 577.197 76.4533 575.384 78.38C572.437 80.3067 570 82.8567 568.074 86.03C566.26 89.09 564.844 92.5467 563.824 96.4C562.917 100.14 562.464 104.107 562.464 108.3C562.464 112.38 562.917 116.29 563.824 120.03C562.917 121.05 562.35 122.013 562.124 122.92C562.01 123.827 561.954 124.79 561.954 125.81C561.954 126.717 561.897 127.623 561.784 128.53C561.67 129.437 561.16 130.4 560.254 131.42C561.5 132.667 562.974 133.573 564.674 134.14C566.487 134.707 568.3 135.16 570.114 135.5C571.927 135.727 573.627 135.953 575.214 136.18C576.914 136.407 578.274 136.917 579.294 137.71C580.314 138.39 580.824 139.41 580.824 140.77C580.937 142.13 580.37 144.057 579.124 146.55H567.734C564.9 146.55 561.84 146.72 558.554 147.06C555.38 147.4 552.264 147.57 549.204 147.57C546.144 147.57 543.254 147.23 540.534 146.55C537.814 145.983 535.547 144.737 533.734 142.81C534.64 141.903 534.98 140.997 534.754 140.09C534.527 139.07 534.3 138.107 534.074 137.2C533.847 136.293 533.847 135.387 534.074 134.48C534.3 133.46 535.377 132.44 537.304 131.42C538.324 131.42 539.514 131.59 540.874 131.93C542.234 132.27 543.594 132.61 544.954 132.95C546.427 133.177 547.844 133.233 549.204 133.12C550.564 133.007 551.697 132.44 552.604 131.42V70.73C551.697 69.8233 550.507 69.6533 549.034 70.22C547.674 70.7867 546.144 71.4667 544.444 72.26C542.857 72.94 541.1 73.3367 539.174 73.45C537.36 73.5633 535.547 72.6567 533.734 70.73C533.734 69.8233 533.904 68.7467 534.244 67.5C534.697 66.14 535.264 64.8933 535.944 63.76C536.624 62.5133 537.417 61.4933 538.324 60.7C539.23 59.7933 540.194 59.34 541.214 59.34C542.46 60.5867 543.82 61.3233 545.294 61.55C546.767 61.6633 548.24 61.6067 549.714 61.38C551.187 61.04 552.604 60.7 553.964 60.36C555.437 59.9067 556.797 59.7933 558.044 60.02C559.29 60.1333 560.424 60.7 561.444 61.72C562.464 62.74 563.257 64.4967 563.824 66.99ZM723.314 87.9C723.314 89.8267 723.427 91.6967 723.654 93.51C723.994 95.3233 724.164 97.0233 724.164 98.61C724.164 100.197 723.824 101.67 723.144 103.03C722.577 104.39 721.387 105.523 719.574 106.43C708.581 102.69 697.644 102.69 686.764 106.43C684.044 105.523 681.494 105.013 679.114 104.9C676.847 104.787 674.694 104.843 672.654 105.07C670.614 105.297 668.631 105.58 666.704 105.92C664.777 106.26 662.907 106.43 661.094 106.43C659.281 108.243 658.431 109.887 658.544 111.36C658.771 112.72 659.337 114.08 660.244 115.44C661.151 116.8 662.114 118.217 663.134 119.69C664.267 121.163 664.834 122.807 664.834 124.62C665.741 126.433 666.817 127.85 668.064 128.87C669.424 129.89 670.784 130.74 672.144 131.42C673.504 132.1 674.807 132.723 676.054 133.29C677.414 133.857 678.547 134.593 679.454 135.5C686.821 135.5 693.224 133.857 698.664 130.57C704.104 127.17 708.637 122.75 712.264 117.31C714.191 117.31 715.891 118.047 717.364 119.52C718.837 120.993 719.574 122.693 719.574 124.62C719.574 126.433 719.121 128.077 718.214 129.55C717.421 131.023 716.344 132.44 714.984 133.8C713.624 135.16 712.094 136.577 710.394 138.05C708.694 139.523 706.937 141.167 705.124 142.98C702.404 143.887 699.061 144.68 695.094 145.36C691.241 146.153 687.217 146.55 683.024 146.55C678.944 146.55 674.921 145.983 670.954 144.85C667.101 143.83 663.814 141.96 661.094 139.24C659.281 136.52 657.297 133.97 655.144 131.59C652.991 129.097 651.007 126.603 649.194 124.11C647.381 121.617 645.851 118.953 644.604 116.12C643.471 113.287 642.904 110.057 642.904 106.43C642.904 105.523 643.074 104.617 643.414 103.71C643.867 102.69 644.321 101.613 644.774 100.48C645.227 99.2333 645.624 97.93 645.964 96.57C646.417 95.0967 646.644 93.4533 646.644 91.64C647.551 88.0133 648.854 84.4433 650.554 80.93C652.367 77.4167 654.521 74.1867 657.014 71.24C659.507 68.18 662.341 65.5733 665.514 63.42C668.687 61.2667 672.087 59.7367 675.714 58.83C681.154 58.83 686.367 59.51 691.354 60.87C696.341 62.1167 700.874 63.9867 704.954 66.48C709.147 68.9733 712.774 72.0333 715.834 75.66C719.007 79.2867 721.501 83.3667 723.314 87.9ZM708.694 91.64C708.694 90.7333 708.467 89.6567 708.014 88.41C707.674 87.1633 707.164 85.9733 706.484 84.84C705.804 83.7067 705.011 82.7433 704.104 81.95C703.197 81.1567 702.291 80.76 701.384 80.76C699.571 79.8533 697.531 78.8333 695.264 77.7C693.111 76.4533 690.844 75.49 688.464 74.81C686.197 74.13 683.931 73.9033 681.664 74.13C679.511 74.2433 677.527 75.2067 675.714 77.02C674.807 78.9467 673.504 80.4767 671.804 81.61C670.217 82.63 668.631 83.7633 667.044 85.01C665.457 86.1433 664.041 87.5033 662.794 89.09C661.661 90.5633 661.094 92.66 661.094 95.38C664.721 95.38 668.574 95.38 672.654 95.38C676.734 95.2667 680.814 95.0967 684.894 94.87C688.974 94.6433 693.054 94.3033 697.134 93.85C701.214 93.2833 705.067 92.5467 708.694 91.64Z" fill="#090F14"/>
</g>
<defs>
<filter id="filter0_d_2_2" x="1.60999" y="38.6" width="726.554" height="119.35" filterUnits="userSpaceOnUse" color-interpolation-filters="sRGB">
<feFlood flood-opacity="0" result="BackgroundImageFix"/>
<feColorMatrix in="SourceAlpha" type="matrix" values="0 0 0 0 0 0 0 0 0 0 0 0 0 0 0 0 0 0 127 0" result="hardAlpha"/>
<feOffset dy="4"/>
<feGaussianBlur stdDeviation="2"/>
<feComposite in2="hardAlpha" operator="out"/>
<feColorMatrix type="matrix" values="0 0 0 0 0 0 0 0 0 0 0 0 0 0 0 0 0 0 0.25 0"/>
<feBlend mode="normal" in2="BackgroundImageFix" result="effect1_dropShadow_2_2"/>
<feBlend mode="normal" in="SourceGraphic" in2="effect1_dropShadow_2_2" result="shape"/>
</filter>
</defs>
</svg>
