<svg width="940" height="170" viewBox="0 0 940 170" fill="none" xmlns="http://www.w3.org/2000/svg">
<g filter="url(#filter0_d_3_29)">
<path d="M841.43 40.47C839.39 42.6233 837.293 44.04 835.14 44.72C833.1 45.2867 831.003 45.6833 828.85 45.91C826.81 46.0233 824.713 46.1933 822.56 46.42C820.52 46.6467 818.48 47.4967 816.44 48.97C810.887 53.05 806.127 57.64 802.16 62.74C798.307 67.7267 795.643 72.3167 794.17 76.51C792.923 79.3433 791.677 82.2333 790.43 85.18C789.297 88.1267 788.73 91.6967 788.73 95.89C790.203 95.89 791.563 95.4367 792.81 94.53C794.17 93.6233 795.587 93.17 797.06 93.17C797.74 91.81 798.703 90.7333 799.95 89.94C801.31 89.1467 802.84 88.58 804.54 88.24C806.353 87.9 808.28 87.73 810.32 87.73C812.36 87.6167 814.4 87.56 816.44 87.56C819.16 87.56 821.937 88.1833 824.77 89.43C827.603 90.5633 830.38 91.81 833.1 93.17C837.293 96.0033 840.523 99.9133 842.79 104.9C845.057 109.887 845.51 115.213 844.15 120.88C842.79 125.073 841.26 128.983 839.56 132.61C837.973 136.237 835.82 138.787 833.1 140.26C827.433 144.453 821.823 146.663 816.27 146.89C810.83 147.117 805.333 145.87 799.78 143.15C796.267 141.677 793.433 139.807 791.28 137.54C789.127 135.16 787.37 132.497 786.01 129.55C784.65 126.49 783.517 123.317 782.61 120.03C781.817 116.63 781.08 113.173 780.4 109.66C780.4 102.747 781.08 96.4567 782.44 90.79C783.913 85.01 786.01 79.3433 788.73 73.79C790.203 72.43 791.167 70.5033 791.62 68.01C792.073 65.4033 792.923 62.6833 794.17 59.85C797.003 56.45 799.95 53.5033 803.01 51.01C806.183 48.4033 809.413 46.1933 812.7 44.38C815.987 42.4533 819.33 40.7533 822.73 39.28C826.243 37.6933 829.7 36.22 833.1 34.86C833.78 34.86 834.573 35.03 835.48 35.37C836.5 35.71 837.407 36.1633 838.2 36.73C839.107 37.1833 839.843 37.75 840.41 38.43C841.09 39.11 841.43 39.79 841.43 40.47ZM833.1 104.22C833.1 102.86 832.647 101.67 831.74 100.65C830.833 99.5167 829.643 98.5533 828.17 97.76C826.81 96.8533 825.337 96.06 823.75 95.38C822.163 94.5867 820.69 93.85 819.33 93.17C816.497 92.49 813.833 92.32 811.34 92.66C808.96 92.8867 806.637 93.4533 804.37 94.36C802.103 95.1533 799.893 96.1733 797.74 97.42C795.7 98.6667 793.66 99.97 791.62 101.33C789.58 102.803 788.39 104.39 788.05 106.09C787.71 107.79 787.71 109.547 788.05 111.36C788.39 113.06 788.73 114.76 789.07 116.46C789.523 118.047 789.41 119.52 788.73 120.88C789.41 121.56 790.033 122.127 790.6 122.58C791.28 123.033 791.79 123.543 792.13 124.11C792.47 124.563 792.64 125.187 792.64 125.98C792.64 126.773 792.3 127.85 791.62 129.21C795.7 133.29 799.893 136.18 804.2 137.88C808.62 139.467 813.663 140.26 819.33 140.26C822.05 138.787 824.657 136.803 827.15 134.31C829.643 131.817 831.627 129.21 833.1 126.49C833.78 125.13 834.403 123.6 834.97 121.9C835.537 120.087 835.877 118.273 835.99 116.46C836.217 114.533 836.103 112.55 835.65 110.51C835.31 108.357 834.46 106.26 833.1 104.22ZM929.781 73.45C928.874 73.45 928.364 73.6767 928.251 74.13C928.251 74.47 928.308 74.98 928.421 75.66C928.648 76.2267 928.931 76.9633 929.271 77.87C929.611 78.6633 929.781 79.4567 929.781 80.25C927.288 84.4433 924.398 87.56 921.111 89.6C917.938 91.5267 914.708 93 911.421 94.02C908.134 95.04 904.848 95.89 901.561 96.57C898.388 97.25 895.554 98.44 893.061 100.14C890.681 100.14 888.584 100.537 886.771 101.33C885.071 102.01 883.484 102.86 882.011 103.88C880.538 104.9 879.121 106.033 877.761 107.28C876.401 108.413 874.871 109.377 873.171 110.17C872.378 111.87 871.584 113.74 870.791 115.78C869.998 117.707 869.148 119.747 868.241 121.9C867.448 123.94 866.598 125.98 865.691 128.02C864.898 129.947 864.104 131.703 863.311 133.29H906.491C908.984 133.29 911.421 133.46 913.801 133.8C916.294 134.14 918.674 134.423 920.941 134.65C923.321 134.763 925.531 134.82 927.571 134.82C929.611 134.707 931.481 134.197 933.181 133.29C934.768 134.99 935.561 136.123 935.561 136.69C935.561 137.257 934.768 138.333 933.181 139.92C932.274 141.62 931.254 142.753 930.121 143.32C928.988 143.887 927.741 144.17 926.381 144.17C925.134 144.283 923.888 144.227 922.641 144C921.508 143.66 920.544 143.49 919.751 143.49C913.971 142.583 908.474 142.243 903.261 142.47C898.161 142.697 893.118 143.037 888.131 143.49C883.144 143.83 878.101 144.113 873.001 144.34C867.901 144.567 862.404 144.283 856.511 143.49C854.924 138.39 854.641 133.347 855.661 128.36C856.794 123.373 858.211 118.443 859.911 113.57C862.404 111.87 864.728 110.057 866.881 108.13C869.148 106.09 871.414 104.163 873.681 102.35C875.948 100.423 878.384 98.7233 880.991 97.25C883.598 95.6633 886.544 94.4167 889.831 93.51C891.531 92.7167 893.174 91.7533 894.761 90.62C896.461 89.4867 898.104 88.5233 899.691 87.73C901.391 86.8233 903.034 86.2567 904.621 86.03C906.321 85.8033 908.021 86.0867 909.721 86.88C911.421 85.18 913.064 83.65 914.651 82.29C916.238 80.93 917.654 79.57 918.901 78.21C920.261 76.7367 921.281 75.0933 921.961 73.28C922.754 71.4667 923.151 69.3133 923.151 66.82H926.381C929.781 66.82 931.594 67.5567 931.821 69.03C932.161 70.39 931.481 71.8633 929.781 73.45ZM926.381 50.33C926.381 52.03 926.834 53.56 927.741 54.92C928.761 56.1667 929.554 57.4133 930.121 58.66C930.801 59.9067 930.971 61.21 930.631 62.57C930.291 63.8167 928.874 65.2333 926.381 66.82C926.381 65.2333 926.211 63.76 925.871 62.4C925.644 61.04 924.738 60.36 923.151 60.36C923.151 59.5667 922.754 58.7733 921.961 57.98C921.281 57.0733 920.431 56.2233 919.411 55.43C918.391 54.5233 917.258 53.6733 916.011 52.88C914.878 51.9733 913.914 51.1233 913.121 50.33C909.834 47.0433 905.811 44.72 901.051 43.36C896.404 41.8867 891.531 42 886.431 43.7C884.731 43.7 883.201 44.21 881.841 45.23C880.594 46.1367 879.404 47.27 878.271 48.63C877.138 49.8767 876.004 51.18 874.871 52.54C873.738 53.7867 872.604 54.8067 871.471 55.6C870.338 56.28 869.091 56.5633 867.731 56.45C866.371 56.2233 864.898 55.26 863.311 53.56C865.011 50.2733 867.051 47.5533 869.431 45.4C871.924 43.1333 874.588 41.32 877.421 39.96C880.368 38.4867 883.428 37.2967 886.601 36.39C889.888 35.37 893.174 34.4633 896.461 33.67C903.034 35.2567 908.814 37.1833 913.801 39.45C918.901 41.7167 923.094 45.3433 926.381 50.33Z" fill="#090F14"/>
<path d="M841.43 40.47L842.519 41.5016L842.93 41.0677V40.47H841.43ZM835.14 44.72L835.541 46.1653L835.567 46.1583L835.592 46.1504L835.14 44.72ZM828.85 45.91L828.933 47.4077L828.97 47.4056L829.007 47.4018L828.85 45.91ZM822.56 46.42L822.403 44.9282L822.394 44.9292L822.56 46.42ZM816.44 48.97L815.562 47.7539L815.552 47.7612L816.44 48.97ZM802.16 62.74L800.976 61.8191L800.973 61.8228L802.16 62.74ZM794.17 76.51L795.543 77.1141L795.566 77.0615L795.585 77.0072L794.17 76.51ZM790.43 85.18L789.049 84.5955L789.039 84.6184L789.03 84.6415L790.43 85.18ZM788.73 95.89H787.23V97.39H788.73V95.89ZM792.81 94.53L791.978 93.2819L791.952 93.2989L791.928 93.3169L792.81 94.53ZM797.06 93.17V94.67H797.987L798.402 93.8408L797.06 93.17ZM799.95 89.94L799.194 88.6443L799.169 88.6589L799.145 88.6745L799.95 89.94ZM804.54 88.24L804.264 86.7657L804.255 86.7674L804.246 86.7691L804.54 88.24ZM810.32 87.73V89.23H810.362L810.403 89.2277L810.32 87.73ZM824.77 89.43L824.166 90.803L824.189 90.8132L824.213 90.8227L824.77 89.43ZM833.1 93.17L833.94 91.9271L833.859 91.8722L833.771 91.8284L833.1 93.17ZM842.79 104.9L844.156 104.279L844.156 104.279L842.79 104.9ZM844.15 120.88L845.577 121.343L845.595 121.287L845.609 121.23L844.15 120.88ZM839.56 132.61L838.202 131.973L838.194 131.991L838.186 132.009L839.56 132.61ZM833.1 140.26L832.386 138.941L832.293 138.991L832.208 139.054L833.1 140.26ZM816.27 146.89L816.209 145.391L816.208 145.391L816.27 146.89ZM799.78 143.15L800.44 141.803L800.4 141.784L800.36 141.767L799.78 143.15ZM791.28 137.54L790.168 138.546L790.18 138.56L790.193 138.573L791.28 137.54ZM786.01 129.55L784.639 130.159L784.644 130.169L784.648 130.179L786.01 129.55ZM782.61 120.03L781.149 120.371L781.156 120.4L781.164 120.429L782.61 120.03ZM780.4 109.66H778.9V109.804L778.927 109.945L780.4 109.66ZM782.44 90.79L780.986 90.4195L780.984 90.4297L780.981 90.4399L782.44 90.79ZM788.73 73.79L787.713 72.6878L787.506 72.8782L787.383 73.1302L788.73 73.79ZM791.62 68.01L793.096 68.2783L793.098 68.267L791.62 68.01ZM794.17 59.85L793.018 58.8897L792.882 59.0522L792.797 59.2459L794.17 59.85ZM803.01 51.01L803.958 52.1729L803.962 52.1691L803.01 51.01ZM812.7 44.38L813.425 45.6934L813.442 45.6839L813.459 45.674L812.7 44.38ZM822.73 39.28L823.326 40.6563L823.337 40.6518L823.347 40.647L822.73 39.28ZM833.1 34.86V33.36H832.811L832.543 33.4673L833.1 34.86ZM835.48 35.37L834.953 36.7745L834.979 36.7842L835.006 36.793L835.48 35.37ZM838.2 36.73L837.328 37.9506L837.424 38.019L837.529 38.0716L838.2 36.73ZM840.41 38.43L839.258 39.3903L839.301 39.4425L839.349 39.4906L840.41 38.43ZM833.1 104.22H831.6V104.674L831.852 105.052L833.1 104.22ZM831.74 100.65L830.569 101.587L830.593 101.617L830.619 101.647L831.74 100.65ZM828.17 97.76L827.338 99.0081L827.397 99.0472L827.459 99.0807L828.17 97.76ZM823.75 95.38L823.079 96.7216L823.119 96.7414L823.159 96.7587L823.75 95.38ZM819.33 93.17L820.001 91.8284L819.847 91.7515L819.68 91.7114L819.33 93.17ZM811.34 92.66L811.482 94.1532L811.513 94.1504L811.543 94.1462L811.34 92.66ZM804.37 94.36L804.866 95.7758L804.897 95.7649L804.927 95.7527L804.37 94.36ZM797.74 97.42L796.988 96.1219L796.973 96.1308L796.958 96.1401L797.74 97.42ZM791.62 101.33L790.788 100.082L790.765 100.098L790.742 100.114L791.62 101.33ZM788.05 106.09L789.521 106.384L789.521 106.384L788.05 106.09ZM788.05 111.36L786.576 111.636L786.577 111.645L786.579 111.654L788.05 111.36ZM789.07 116.46L787.599 116.754L787.611 116.814L787.628 116.872L789.07 116.46ZM788.73 120.88L787.388 120.209L786.905 121.176L787.669 121.941L788.73 120.88ZM790.6 122.58L789.663 123.751L789.714 123.792L789.768 123.828L790.6 122.58ZM792.13 124.11L790.844 124.882L790.884 124.948L790.93 125.01L792.13 124.11ZM791.62 129.21L790.278 128.539L789.795 129.506L790.559 130.271L791.62 129.21ZM804.2 137.88L803.649 139.275L803.671 139.284L803.693 139.292L804.2 137.88ZM819.33 140.26V141.76H819.71L820.044 141.579L819.33 140.26ZM827.15 134.31L828.211 135.371L828.211 135.371L827.15 134.31ZM833.1 126.49L834.419 127.204L834.431 127.183L834.442 127.161L833.1 126.49ZM834.97 121.9L836.393 122.374L836.398 122.361L836.402 122.347L834.97 121.9ZM835.99 116.46L834.5 116.285L834.495 116.325L834.493 116.366L835.99 116.46ZM835.65 110.51L834.168 110.744L834.176 110.79L834.186 110.835L835.65 110.51ZM840.341 39.4384C838.423 41.463 836.534 42.7066 834.688 43.2896L835.592 46.1504C838.052 45.3734 840.357 43.7837 842.519 41.5016L840.341 39.4384ZM834.739 43.2747C832.78 43.8186 830.766 44.2001 828.693 44.4182L829.007 47.4018C831.241 47.1666 833.42 46.7547 835.541 46.1653L834.739 43.2747ZM828.767 44.4123C826.701 44.5271 824.579 44.6991 822.403 44.9282L822.717 47.9118C824.847 47.6875 826.919 47.5196 828.933 47.4077L828.767 44.4123ZM822.394 44.9292C820.045 45.1902 817.765 46.1631 815.562 47.754L817.318 50.186C819.195 48.8302 820.995 48.1031 822.726 47.9108L822.394 44.9292ZM815.552 47.7612C809.895 51.9176 805.033 56.6029 800.976 61.8191L803.344 63.6609C807.22 58.6771 811.879 54.1824 817.328 50.1788L815.552 47.7612ZM800.973 61.8228C797.059 66.8878 794.298 71.6195 792.755 76.0128L795.585 77.0072C796.988 73.0139 799.554 68.5655 803.347 63.6572L800.973 61.8228ZM792.797 75.9059C791.547 78.746 790.298 81.6425 789.049 84.5955L791.811 85.7645C793.055 82.8241 794.299 79.9407 795.543 77.1141L792.797 75.9059ZM789.03 84.6415C787.813 87.8062 787.23 91.5695 787.23 95.89H790.23C790.23 91.8238 790.781 88.4471 791.83 85.7185L789.03 84.6415ZM788.73 97.39C790.536 97.39 792.202 96.827 793.692 95.7431L791.928 93.3169C790.925 94.0463 789.871 94.39 788.73 94.39V97.39ZM793.642 95.7781C794.784 95.017 795.915 94.67 797.06 94.67V91.67C795.259 91.67 793.556 92.2297 791.978 93.2819L793.642 95.7781ZM798.402 93.8408C798.964 92.7166 799.745 91.8485 800.755 91.2055L799.145 88.6745C797.662 89.6182 796.516 90.9034 795.718 92.4992L798.402 93.8408ZM800.706 91.2357C801.909 90.5338 803.28 90.0216 804.834 89.7109L804.246 86.7691C802.4 87.1384 800.711 87.7595 799.194 88.6443L800.706 91.2357ZM804.816 89.7143C806.53 89.3931 808.363 89.23 810.32 89.23V86.23C808.197 86.23 806.177 86.4069 804.264 86.7657L804.816 89.7143ZM810.403 89.2277C812.416 89.1159 814.428 89.06 816.44 89.06V86.06C814.372 86.06 812.304 86.1174 810.237 86.2323L810.403 89.2277ZM816.44 89.06C818.925 89.06 821.497 89.6285 824.166 90.803L825.374 88.057C822.377 86.7381 819.395 86.06 816.44 86.06V89.06ZM824.213 90.8227C827.008 91.9407 829.746 93.1703 832.429 94.5116L833.771 91.8284C831.014 90.4497 828.199 89.186 825.327 88.0373L824.213 90.8227ZM832.26 94.4129C836.205 97.0786 839.263 100.764 841.424 105.521L844.156 104.279C841.784 99.0622 838.381 94.9281 833.94 91.9271L832.26 94.4129ZM841.424 105.521C843.544 110.183 843.979 115.166 842.691 120.53L845.609 121.23C847.041 115.261 846.57 109.59 844.156 104.279L841.424 105.521ZM842.723 120.417C841.381 124.557 839.873 128.408 838.202 131.973L840.918 133.247C842.647 129.558 844.199 125.59 845.577 121.343L842.723 120.417ZM838.186 132.009C836.695 135.416 834.738 137.667 832.386 138.941L833.814 141.579C836.902 139.907 839.252 137.057 840.934 133.211L838.186 132.009ZM832.208 139.054C826.718 143.117 821.391 145.18 816.209 145.391L816.331 148.389C822.256 148.147 828.149 145.79 833.992 141.466L832.208 139.054ZM816.208 145.391C811.049 145.606 805.8 144.428 800.44 141.803L799.12 144.497C804.867 147.312 810.611 148.627 816.332 148.389L816.208 145.391ZM800.36 141.767C796.997 140.357 794.35 138.594 792.368 136.507L790.193 138.573C792.517 141.02 795.536 142.997 799.2 144.533L800.36 141.767ZM792.392 136.534C790.342 134.267 788.669 131.732 787.372 128.921L784.648 130.179C786.071 133.262 787.911 136.053 790.168 138.546L792.392 136.534ZM787.381 128.941C786.052 125.95 784.943 122.847 784.056 119.631L781.164 120.429C782.09 123.786 783.248 127.03 784.639 130.159L787.381 128.941ZM784.071 119.689C783.282 116.308 782.549 112.87 781.873 109.375L778.927 109.945C779.611 113.477 780.351 116.952 781.149 120.371L784.071 119.689ZM781.9 109.66C781.9 102.843 782.571 96.6732 783.899 91.1401L780.981 90.4399C779.589 96.2402 778.9 102.65 778.9 109.66H781.9ZM783.894 91.1605C785.34 85.4839 787.401 79.914 790.077 74.4498L787.383 73.1302C784.619 78.7727 782.486 84.5361 780.986 90.4195L783.894 91.1605ZM789.747 74.8922C791.517 73.2589 792.6 71.0065 793.096 68.2783L790.144 67.7417C789.734 70.0002 788.89 71.6011 787.713 72.6878L789.747 74.8922ZM793.098 68.267C793.527 65.798 794.337 63.1947 795.543 60.4541L792.797 59.2459C791.51 62.172 790.619 65.0086 790.142 67.753L793.098 68.267ZM795.322 60.8103C798.101 57.4755 800.98 54.5986 803.958 52.1728L802.062 49.8471C798.92 52.4081 795.905 55.4245 793.018 58.8897L795.322 60.8103ZM803.962 52.1691C807.071 49.6153 810.225 47.4584 813.425 45.6934L811.975 43.0666C808.601 44.9282 805.296 47.1913 802.058 49.8509L803.962 52.1691ZM813.459 45.674C816.694 43.7772 819.984 42.1049 823.326 40.6563L822.134 37.9037C818.676 39.4018 815.279 41.1295 811.941 43.0859L813.459 45.674ZM823.347 40.647C826.842 39.0689 830.278 37.6042 833.657 36.2527L832.543 33.4673C829.122 34.8358 825.645 36.3177 822.113 37.9129L823.347 40.647ZM833.1 36.36C833.541 36.36 834.149 36.473 834.953 36.7745L836.007 33.9655C834.997 33.5869 834.019 33.36 833.1 33.36V36.36ZM835.006 36.793C835.898 37.0905 836.668 37.4793 837.328 37.9506L839.072 35.5094C838.145 34.8474 837.102 34.3294 835.954 33.947L835.006 36.793ZM837.529 38.0716C838.278 38.4458 838.841 38.8907 839.258 39.3903L841.562 37.4697C840.845 36.6093 839.936 35.9209 838.871 35.3884L837.529 38.0716ZM839.349 39.4906C839.866 40.0072 839.93 40.3281 839.93 40.47H842.93C842.93 39.2519 842.314 38.2128 841.471 37.3693L839.349 39.4906ZM834.6 104.22C834.6 102.491 834.011 100.947 832.861 99.6535L830.619 101.647C831.282 102.393 831.6 103.229 831.6 104.22H834.6ZM832.911 99.713C831.861 98.3998 830.505 97.3138 828.881 96.4393L827.459 99.0807C828.782 99.7929 829.806 100.633 830.569 101.587L832.911 99.713ZM829.002 96.5119C827.562 95.5517 826.007 94.7154 824.341 94.0013L823.159 96.7587C824.666 97.4046 826.058 98.155 827.338 99.0081L829.002 96.5119ZM824.421 94.0384C822.834 93.245 821.361 92.5084 820.001 91.8284L818.659 94.5116C820.019 95.1916 821.493 95.9283 823.079 96.7216L824.421 94.0384ZM819.68 91.7114C816.694 90.9948 813.842 90.805 811.137 91.1738L811.543 94.1462C813.825 93.835 816.299 93.9852 818.98 94.6286L819.68 91.7114ZM811.198 91.1668C808.672 91.4073 806.21 92.0086 803.813 92.9673L804.927 95.7527C807.064 94.898 809.248 94.3661 811.482 94.1532L811.198 91.1668ZM803.874 92.9442C801.516 93.7697 799.22 94.8297 796.988 96.1219L798.492 98.7181C800.566 97.5169 802.691 96.5369 804.866 95.7758L803.874 92.9442ZM796.958 96.1401C794.901 97.3973 792.844 98.7113 790.788 100.082L792.452 102.578C794.476 101.229 796.499 99.936 798.522 98.6999L796.958 96.1401ZM790.742 100.114C788.532 101.71 787.021 103.587 786.579 105.796L789.521 106.384C789.759 105.193 790.628 103.897 792.498 102.546L790.742 100.114ZM786.579 105.796C786.199 107.696 786.203 109.647 786.576 111.636L789.524 111.084C789.217 109.447 789.221 107.884 789.521 106.384L786.579 105.796ZM786.579 111.654C786.604 111.78 786.681 112.166 786.707 112.292C786.707 112.292 786.77 112.61 786.77 112.61C786.77 112.61 786.834 112.929 786.834 112.929C786.834 112.929 786.898 113.248 786.898 113.248C786.898 113.248 786.962 113.567 786.962 113.567C786.962 113.567 787.025 113.885 787.025 113.885C787.025 113.885 787.089 114.204 787.089 114.204C787.089 114.204 787.121 114.364 787.121 114.364C787.121 114.364 787.153 114.523 787.153 114.523C787.153 114.523 787.185 114.682 787.185 114.682C787.185 114.682 787.217 114.842 787.217 114.842C787.217 114.842 787.249 115.001 787.249 115.001C787.249 115.001 787.28 115.16 787.28 115.16C787.28 115.16 787.312 115.32 787.312 115.32C787.312 115.32 787.344 115.479 787.344 115.479C787.344 115.479 787.376 115.639 787.376 115.639C787.376 115.639 787.408 115.798 787.408 115.798C787.408 115.798 787.44 115.957 787.44 115.957C787.44 115.957 787.472 116.117 787.472 116.117C787.472 116.117 787.504 116.276 787.504 116.276C787.504 116.276 787.535 116.435 787.535 116.435C787.535 116.435 787.567 116.595 787.567 116.595C787.567 116.595 787.599 116.754 787.599 116.754L790.541 116.166C790.541 116.166 790.477 115.847 790.477 115.847C790.477 115.847 790.413 115.528 790.413 115.528C790.413 115.528 790.35 115.21 790.35 115.21C790.35 115.21 790.286 114.891 790.286 114.891C790.286 114.891 790.222 114.572 790.222 114.572C790.222 114.572 790.158 114.253 790.158 114.253C790.158 114.253 790.095 113.935 790.095 113.935C790.095 113.935 790.031 113.616 790.031 113.616C790.031 113.616 789.999 113.456 789.999 113.456C789.999 113.456 789.967 113.297 789.967 113.297C789.967 113.297 789.935 113.138 789.935 113.138C789.935 113.138 789.903 112.978 789.903 112.978C789.903 112.978 789.871 112.819 789.871 112.819C789.871 112.819 789.84 112.66 789.84 112.66C789.84 112.66 789.808 112.5 789.808 112.5C789.808 112.5 789.776 112.341 789.776 112.341C789.776 112.341 789.744 112.181 789.744 112.181C789.744 112.181 789.712 112.022 789.712 112.022C789.704 111.982 789.656 111.744 789.648 111.703C789.639 111.656 789.594 111.432 789.585 111.385C789.575 111.337 789.53 111.113 789.521 111.066L786.579 111.654ZM787.628 116.872C787.988 118.131 787.886 119.215 787.388 120.209L790.072 121.551C790.934 119.825 791.059 117.962 790.512 116.048L787.628 116.872ZM787.669 121.941C788.377 122.648 789.042 123.254 789.663 123.751L791.537 121.409C791.025 120.999 790.443 120.472 789.791 119.819L787.669 121.941ZM789.768 123.828C790.306 124.187 790.642 124.545 790.844 124.882L793.416 123.338C792.938 122.542 792.254 121.88 791.432 121.332L789.768 123.828ZM790.93 125.01C791.011 125.118 791.14 125.385 791.14 125.98H794.14C794.14 124.989 793.929 124.009 793.33 123.21L790.93 125.01ZM791.14 125.98C791.14 126.412 790.933 127.23 790.278 128.539L792.962 129.881C793.667 128.47 794.14 127.134 794.14 125.98H791.14ZM790.559 130.271C794.75 134.461 799.111 137.484 803.649 139.275L804.751 136.485C800.676 134.876 796.65 132.119 792.681 128.149L790.559 130.271ZM803.693 139.292C808.305 140.947 813.525 141.76 819.33 141.76V138.76C813.801 138.76 808.935 137.986 804.707 136.468L803.693 139.292ZM820.044 141.579C822.908 140.028 825.629 137.952 828.211 135.371L826.089 133.249C823.684 135.654 821.192 137.546 818.616 138.941L820.044 141.579ZM828.211 135.371C830.792 132.789 832.868 130.068 834.419 127.204L831.781 125.776C830.386 128.352 828.494 130.844 826.089 133.249L828.211 135.371ZM834.442 127.161C835.158 125.727 835.808 124.13 836.393 122.374L833.547 121.426C832.999 123.07 832.402 124.533 831.758 125.819L834.442 127.161ZM836.402 122.347C837.003 120.424 837.366 118.492 837.487 116.554L834.493 116.366C834.387 118.054 834.071 119.749 833.538 121.453L836.402 122.347ZM837.48 116.635C837.728 114.529 837.601 112.376 837.114 110.185L834.186 110.835C834.605 112.724 834.706 114.538 834.5 116.285L837.48 116.635ZM837.132 110.276C836.754 107.884 835.813 105.586 834.348 103.388L831.852 105.052C833.107 106.934 833.866 108.83 834.168 110.744L837.132 110.276ZM929.781 73.45V74.95H930.372L930.804 74.5466L929.781 73.45ZM928.251 74.13L926.796 73.7662L926.751 73.9453V74.13H928.251ZM928.421 75.66L926.941 75.9066L926.968 76.0665L927.028 76.2171L928.421 75.66ZM929.271 77.87L927.866 78.3967L927.879 78.4291L927.892 78.4609L929.271 77.87ZM929.781 80.25L931.07 81.0166L931.281 80.6623V80.25H929.781ZM921.111 89.6L921.889 90.8822L921.896 90.8783L921.902 90.8745L921.111 89.6ZM911.421 94.02L911.865 95.4526L911.865 95.4526L911.421 94.02ZM901.561 96.57L901.257 95.1011L901.247 95.1033L901.561 96.57ZM893.061 100.14V101.64H893.524L893.906 101.379L893.061 100.14ZM886.771 101.33L887.328 102.723L887.35 102.714L887.372 102.704L886.771 101.33ZM882.011 103.88L881.157 102.647L881.157 102.647L882.011 103.88ZM877.761 107.28L878.721 108.432L878.748 108.41L878.774 108.386L877.761 107.28ZM873.171 110.17L872.537 108.811L872.042 109.041L871.812 109.536L873.171 110.17ZM870.791 115.78L872.178 116.351L872.184 116.337L872.189 116.324L870.791 115.78ZM868.241 121.9L866.858 121.318L866.85 121.337L866.843 121.356L868.241 121.9ZM865.691 128.02L864.32 127.411L864.312 127.43L864.304 127.449L865.691 128.02ZM863.311 133.29L861.969 132.619L860.884 134.79H863.311V133.29ZM913.801 133.8L913.589 135.285L913.598 135.286L913.801 133.8ZM920.941 134.65L920.792 136.143L920.83 136.146L920.87 136.148L920.941 134.65ZM927.571 134.82V136.32H927.612L927.654 136.318L927.571 134.82ZM933.181 133.29L934.277 132.267L933.491 131.424L932.475 131.966L933.181 133.29ZM933.181 139.92L932.12 138.859L931.962 139.017L931.857 139.214L933.181 139.92ZM930.121 143.32L930.792 144.662L930.792 144.662L930.121 143.32ZM926.381 144.17V142.67H926.313L926.245 142.676L926.381 144.17ZM922.641 144L922.21 145.437L922.29 145.461L922.373 145.476L922.641 144ZM919.751 143.49L919.518 144.972L919.634 144.99H919.751V143.49ZM903.261 142.47L903.196 140.971L903.194 140.971L903.261 142.47ZM888.131 143.49L888.233 144.987L888.25 144.985L888.267 144.984L888.131 143.49ZM873.001 144.34L872.934 142.841L873.001 144.34ZM856.511 143.49L855.079 143.936L855.363 144.849L856.311 144.977L856.511 143.49ZM855.661 128.36L854.198 128.028L854.195 128.043L854.191 128.059L855.661 128.36ZM859.911 113.57L859.066 112.331L858.657 112.609L858.495 113.076L859.911 113.57ZM866.881 108.13L867.881 109.248L867.884 109.245L866.881 108.13ZM873.681 102.35L874.618 103.521L874.635 103.507L874.652 103.493L873.681 102.35ZM880.991 97.25L881.729 98.5558L881.75 98.5439L881.771 98.5313L880.991 97.25ZM889.831 93.51L890.23 94.956L890.351 94.9225L890.465 94.8693L889.831 93.51ZM894.761 90.62L893.929 89.3719L893.909 89.3853L893.889 89.3994L894.761 90.62ZM899.691 87.73L900.362 89.0716L900.379 89.0628L900.397 89.0535L899.691 87.73ZM904.621 86.03L904.423 84.5431L904.409 84.5451L904.621 86.03ZM909.721 86.88L909.087 88.2393L910.039 88.6836L910.782 87.9407L909.721 86.88ZM914.651 82.29L915.627 83.4289L915.627 83.4289L914.651 82.29ZM918.901 78.21L917.799 77.1926L917.795 77.1964L918.901 78.21ZM921.961 73.28L920.587 72.6788L920.57 72.7156L920.556 72.7533L921.961 73.28ZM923.151 66.82V65.32H921.651V66.82H923.151ZM931.821 69.03L930.338 69.2581L930.349 69.3266L930.366 69.3938L931.821 69.03ZM926.381 50.33H927.881V49.8801L927.633 49.5045L926.381 50.33ZM927.741 54.92L926.493 55.752L926.533 55.8131L926.58 55.8698L927.741 54.92ZM930.121 58.66L928.755 59.2807L928.778 59.3304L928.804 59.3783L930.121 58.66ZM930.631 62.57L932.078 62.9647L932.082 62.9493L932.086 62.9338L930.631 62.57ZM926.381 66.82H924.881V69.5525L927.186 68.0855L926.381 66.82ZM925.871 62.4L924.391 62.6466L924.401 62.7057L924.416 62.7638L925.871 62.4ZM923.151 60.36H921.651V61.86H923.151V60.36ZM921.961 57.98L920.761 58.88L920.825 58.9653L920.9 59.0407L921.961 57.98ZM919.411 55.43L918.414 56.5511L918.451 56.5838L918.49 56.614L919.411 55.43ZM916.011 52.88L915.074 54.0513L915.137 54.102L915.206 54.1455L916.011 52.88ZM913.121 50.33L912.06 51.3907L912.06 51.3907L913.121 50.33ZM901.051 43.36L900.597 44.7898L900.618 44.7964L900.639 44.8023L901.051 43.36ZM886.431 43.7V45.2H886.674L886.905 45.123L886.431 43.7ZM881.841 45.23L882.723 46.4431L882.732 46.4366L882.741 46.43L881.841 45.23ZM878.271 48.63L879.381 49.639L879.403 49.6151L879.423 49.5903L878.271 48.63ZM874.871 52.54L875.981 53.549L876.003 53.5251L876.023 53.5003L874.871 52.54ZM871.471 55.6L872.243 56.8862L872.288 56.8591L872.331 56.8288L871.471 55.6ZM867.731 56.45L867.484 57.9296L867.545 57.9397L867.606 57.9448L867.731 56.45ZM863.311 53.56L861.979 52.8709L861.493 53.8103L862.214 54.5835L863.311 53.56ZM869.431 45.4L870.437 46.5123L870.44 46.5099L869.431 45.4ZM877.421 39.96L878.07 41.3123L878.081 41.307L878.092 41.3016L877.421 39.96ZM886.601 36.39L887.013 37.8323L887.029 37.8276L887.045 37.8226L886.601 36.39ZM896.461 33.67L896.813 32.2119L896.461 32.1269L896.109 32.2119L896.461 33.67ZM913.801 39.45L913.18 40.8156L913.192 40.8207L913.801 39.45ZM929.781 71.95C929.233 71.95 928.639 72.0138 928.109 72.2493C927.524 72.5094 926.987 73.0025 926.796 73.7662L929.706 74.4938C929.675 74.6195 929.609 74.7445 929.516 74.8461C929.429 74.9413 929.35 74.9809 929.328 74.9907C929.308 74.9993 929.329 74.987 929.412 74.9737C929.494 74.9606 929.614 74.95 929.781 74.95V71.95ZM926.751 74.13C926.751 74.5994 926.825 75.2101 926.941 75.9066L929.9 75.4134C929.79 74.7499 929.751 74.3406 929.751 74.13H926.751ZM927.028 76.2171C927.249 76.7696 927.528 77.4951 927.866 78.3967L930.675 77.3433C930.333 76.4316 930.046 75.6837 929.814 75.1029L927.028 76.2171ZM927.892 78.4609C928.159 79.0841 928.281 79.6771 928.281 80.25H931.281C931.281 79.2362 931.062 78.2426 930.65 77.2791L927.892 78.4609ZM928.492 79.4834C926.09 83.5227 923.356 86.4412 920.32 88.3255L921.902 90.8745C925.439 88.6787 928.485 85.364 931.07 81.0166L928.492 79.4834ZM920.332 88.3178C917.256 90.1859 914.137 91.6064 910.976 92.5874L911.865 95.4526C915.278 94.3935 918.619 92.8675 921.889 90.8822L920.332 88.3178ZM910.976 92.5874C907.735 93.5934 904.495 94.4312 901.257 95.1011L901.865 98.0389C905.2 97.3488 908.534 96.4866 911.865 95.4526L910.976 92.5874ZM901.247 95.1033C897.898 95.8209 894.881 97.0832 892.216 98.9007L893.906 101.379C896.227 99.7968 898.877 98.6791 901.875 98.0367L901.247 95.1033ZM893.061 98.64C890.515 98.64 888.207 99.0645 886.17 99.9558L887.372 102.704C888.961 102.009 890.847 101.64 893.061 101.64V98.64ZM886.214 99.9373C884.411 100.658 882.725 101.561 881.157 102.647L882.865 105.113C884.243 104.159 885.73 103.362 887.328 102.723L886.214 99.9373ZM881.157 102.647C879.626 103.707 878.156 104.883 876.747 106.174L878.774 108.386C880.086 107.184 881.449 106.093 882.865 105.113L881.157 102.647ZM876.801 106.128C875.546 107.173 874.126 108.069 872.537 108.811L873.805 111.529C875.615 110.685 877.256 109.653 878.721 108.432L876.801 106.128ZM871.812 109.536C871.002 111.27 870.196 113.171 869.393 115.236L872.189 116.324C872.972 114.309 873.753 112.47 874.53 110.804L871.812 109.536ZM869.404 115.209C868.612 117.131 867.764 119.168 866.858 121.318L869.623 122.482C870.531 120.326 871.383 118.282 872.178 116.351L869.404 115.209ZM866.843 121.356C866.058 123.374 865.217 125.392 864.32 127.411L867.062 128.629C867.978 126.568 868.837 124.506 869.639 122.444L866.843 121.356ZM864.304 127.449C863.522 129.347 862.744 131.07 861.969 132.619L864.653 133.961C865.465 132.336 866.273 130.546 867.078 128.591L864.304 127.449ZM863.311 134.79H906.491V131.79H863.311V134.79ZM906.491 134.79C908.916 134.79 911.282 134.955 913.589 135.285L914.013 132.315C911.56 131.965 909.053 131.79 906.491 131.79V134.79ZM913.598 135.286C916.107 135.628 918.505 135.914 920.792 136.143L921.09 133.157C918.843 132.933 916.481 132.652 914.004 132.314L913.598 135.286ZM920.87 136.148C923.269 136.263 925.504 136.32 927.571 136.32V133.32C925.558 133.32 923.372 133.264 921.012 133.152L920.87 136.148ZM927.654 136.318C929.898 136.193 931.983 135.629 933.887 134.614L932.475 131.966C930.979 132.764 929.323 133.22 927.488 133.322L927.654 136.318ZM932.084 134.313C932.857 135.142 933.398 135.792 933.737 136.275C933.907 136.517 934.003 136.687 934.053 136.793C934.113 136.921 934.061 136.866 934.061 136.69H937.061C937.061 136.231 936.91 135.822 936.771 135.524C936.623 135.205 936.422 134.879 936.195 134.555C935.74 133.905 935.091 133.138 934.277 132.267L932.084 134.313ZM934.061 136.69C934.061 136.509 934.115 136.446 934.061 136.559C934.016 136.652 933.925 136.807 933.758 137.033C933.426 137.484 932.891 138.089 932.12 138.859L934.242 140.981C935.058 140.165 935.712 139.438 936.173 138.812C936.404 138.5 936.61 138.18 936.763 137.863C936.907 137.564 937.061 137.154 937.061 136.69H934.061ZM931.857 139.214C931.025 140.774 930.195 141.606 929.45 141.978L930.792 144.662C932.314 143.901 933.523 142.466 934.504 140.626L931.857 139.214ZM929.45 141.978C928.54 142.433 927.525 142.67 926.381 142.67V145.67C927.956 145.67 929.435 145.34 930.792 144.662L929.45 141.978ZM926.245 142.676C925.135 142.777 924.024 142.727 922.909 142.524L922.373 145.476C923.751 145.726 925.133 145.79 926.517 145.664L926.245 142.676ZM923.072 142.563C921.86 142.2 920.743 141.99 919.751 141.99V144.99C920.345 144.99 921.155 145.12 922.21 145.437L923.072 142.563ZM919.983 142.008C914.117 141.088 908.52 140.74 903.196 140.971L903.326 143.969C908.429 143.747 913.825 144.079 919.518 144.972L919.983 142.008ZM903.194 140.971C898.072 141.199 893.005 141.541 887.995 141.996L888.267 144.984C893.23 144.533 898.25 144.194 903.327 143.969L903.194 140.971ZM888.029 141.993C883.054 142.333 878.023 142.615 872.934 142.841L873.067 145.839C878.179 145.611 883.234 145.327 888.233 144.987L888.029 141.993ZM872.934 142.841C867.936 143.064 862.53 142.787 856.711 142.003L856.311 144.977C862.278 145.78 867.865 146.07 873.067 145.839L872.934 142.841ZM857.943 143.044C856.428 138.174 856.164 133.387 857.13 128.661L854.191 128.059C853.118 133.306 853.421 138.606 855.079 143.936L857.943 143.044ZM857.124 128.692C858.244 123.761 859.645 118.885 861.327 114.064L858.495 113.076C856.776 118.002 855.344 122.986 854.198 128.028L857.124 128.692ZM860.756 114.809C863.301 113.074 865.677 111.22 867.881 109.248L865.881 107.012C863.778 108.893 861.507 110.666 859.066 112.331L860.756 114.809ZM867.884 109.245C870.13 107.223 872.375 105.316 874.618 103.521L872.744 101.179C870.453 103.011 868.165 104.957 865.877 107.015L867.884 109.245ZM874.652 103.493C876.846 101.628 879.205 99.9827 881.729 98.5558L880.253 95.9442C877.564 97.464 875.049 99.2184 872.709 101.207L874.652 103.493ZM881.771 98.5313C884.246 97.0248 887.062 95.83 890.23 94.956L889.432 92.064C886.027 93.0034 882.949 94.3018 880.211 95.9687L881.771 98.5313ZM890.465 94.8693C892.252 94.0356 893.974 93.0252 895.633 91.8406L893.889 89.3994C892.374 90.4814 890.81 91.3977 889.197 92.1507L890.465 94.8693ZM895.593 91.8681C897.249 90.7642 898.838 89.8334 900.362 89.0716L899.02 86.3884C897.37 87.2133 895.673 88.2091 893.929 89.3719L895.593 91.8681ZM900.397 89.0535C901.973 88.2128 903.45 87.7125 904.833 87.5149L904.409 84.5451C902.618 84.8008 900.809 85.4338 898.985 86.4065L900.397 89.0535ZM904.819 87.5168C906.209 87.3316 907.621 87.5553 909.087 88.2393L910.355 85.5207C908.421 84.618 906.433 84.2751 904.423 84.5432L904.819 87.5168ZM910.782 87.9407C912.458 86.2639 914.073 84.7605 915.627 83.4289L913.675 81.1511C912.055 82.5395 910.383 84.0961 908.66 85.8193L910.782 87.9407ZM915.627 83.4289C917.253 82.0348 918.714 80.6333 920.007 79.2236L917.795 77.1964C916.594 78.5067 915.222 79.8252 913.675 81.1511L915.627 83.4289ZM920.003 79.2274C921.49 77.6167 922.615 75.808 923.365 73.8067L920.556 72.7533C919.947 74.3786 919.032 75.8566 917.799 77.1926L920.003 79.2274ZM923.335 73.8812C924.23 71.8359 924.651 69.4683 924.651 66.82H921.651C921.651 69.1583 921.278 71.0974 920.587 72.6788L923.335 73.8812ZM923.151 68.32H926.381V65.32H923.151V68.32ZM926.381 68.32C928.009 68.32 929.085 68.5016 929.726 68.7622C930.318 69.0026 930.33 69.2054 930.338 69.2581L933.303 68.8019C933.085 67.3812 932.077 66.4791 930.855 65.9828C929.684 65.5067 928.153 65.32 926.381 65.32V68.32ZM930.366 69.3938C930.502 69.9395 930.334 70.8819 928.757 72.3534L930.804 74.5466C932.628 72.8448 933.82 70.8405 933.276 68.6662L930.366 69.3938ZM924.881 50.33C924.881 52.3136 925.415 54.1354 926.493 55.752L928.989 54.0879C928.253 52.9846 927.881 51.7464 927.881 50.33H924.881ZM926.58 55.8698C927.532 57.0332 928.251 58.1707 928.755 59.2807L931.486 58.0393C930.858 56.6559 929.99 55.3001 928.902 53.9701L926.58 55.8698ZM928.804 59.3783C929.306 60.2992 929.423 61.2167 929.176 62.2062L932.086 62.9338C932.519 61.2033 932.295 59.5142 931.438 57.9417L928.804 59.3783ZM929.184 62.1753C929.11 62.4449 928.869 62.8903 928.253 63.5068C927.649 64.1107 926.769 64.795 925.576 65.5545L927.186 68.0855C928.486 67.2583 929.561 66.441 930.374 65.6282C931.174 64.828 931.812 63.9418 932.078 62.9647L929.184 62.1753ZM927.881 66.82C927.881 65.1265 927.699 63.5296 927.326 62.0362L924.416 62.7638C924.722 63.9904 924.881 65.3402 924.881 66.82H927.881ZM927.35 62.1534C927.188 61.1801 926.747 60.2895 925.921 59.67C925.122 59.0709 924.142 58.86 923.151 58.86V61.86C923.746 61.86 924.013 61.9891 924.121 62.07C924.201 62.1305 924.327 62.2599 924.391 62.6466L927.35 62.1534ZM924.651 60.36C924.651 59.0285 923.978 57.8762 923.022 56.9193L920.9 59.0407C921.53 59.6705 921.651 60.1048 921.651 60.36H924.651ZM923.161 57.08C922.391 56.053 921.443 55.1099 920.332 54.246L918.49 56.614C919.419 57.3367 920.171 58.0937 920.761 58.88L923.161 57.08ZM920.407 54.3089C919.323 53.3449 918.125 52.4473 916.816 51.6145L915.206 54.1455C916.39 54.8994 917.459 55.7017 918.414 56.5511L920.407 54.3089ZM916.948 51.7087C915.846 50.8272 914.926 50.0141 914.182 49.2693L912.06 51.3907C912.902 52.2325 913.909 53.1195 915.074 54.0513L916.948 51.7087ZM914.182 49.2693C910.703 45.7907 906.452 43.343 901.463 41.9177L900.639 44.8023C905.17 46.097 908.966 48.296 912.06 51.3907L914.182 49.2693ZM901.504 41.9302C896.524 40.3511 891.325 40.4876 885.957 42.277L886.905 45.123C891.737 43.5124 896.284 43.4222 900.597 44.7898L901.504 41.9302ZM886.431 42.2C884.406 42.2 882.561 42.8153 880.941 44.03L882.741 46.43C883.841 45.6047 885.055 45.2 886.431 45.2V42.2ZM880.959 44.0169C879.598 45.0062 878.32 46.2284 877.119 47.6697L879.423 49.5903C880.489 48.3116 881.59 47.2671 882.723 46.4431L880.959 44.0169ZM877.161 47.621C876.012 48.8844 874.865 50.204 873.719 51.5797L876.023 53.5003C877.143 52.156 878.263 50.869 879.381 49.639L877.161 47.621ZM873.761 51.531C872.687 52.7125 871.636 53.6536 870.611 54.3711L872.331 56.8288C873.573 55.9597 874.788 54.8609 875.981 53.549L873.761 51.531ZM870.699 54.3138C869.845 54.8265 868.913 55.0433 867.855 54.9552L867.606 57.9448C869.269 58.0833 870.831 57.7335 872.243 56.8862L870.699 54.3138ZM867.977 54.9704C867.1 54.8242 865.909 54.1456 864.407 52.5365L862.214 54.5835C863.886 56.3744 865.641 57.6224 867.484 57.9296L867.977 54.9704ZM864.643 54.2491C866.273 51.0979 868.209 48.5283 870.437 46.5123L868.424 44.2877C865.893 46.5783 863.749 49.4488 861.979 52.8709L864.643 54.2491ZM870.44 46.5099C872.833 44.334 875.377 42.605 878.07 41.3123L876.772 38.6077C873.798 40.035 871.015 41.9327 868.422 44.2901L870.44 46.5099ZM878.092 41.3016C880.955 39.8699 883.929 38.7135 887.013 37.8323L886.189 34.9477C882.926 35.8798 879.78 37.1035 876.75 38.6183L878.092 41.3016ZM887.045 37.8226C890.302 36.8119 893.558 35.9138 896.813 35.1281L896.109 32.2119C892.791 33.0129 889.473 33.9281 886.156 34.9574L887.045 37.8226ZM896.109 35.1281C902.61 36.6975 908.297 38.596 913.18 40.8155L914.422 38.0844C909.331 35.7706 903.458 33.8159 896.813 32.2119L896.109 35.1281ZM913.192 40.8207C918.011 42.9626 921.988 46.3908 925.128 51.1555L927.633 49.5045C924.2 44.2959 919.791 40.4707 914.41 38.0793L913.192 40.8207Z" fill="#090F14"/>
</g>
<g filter="url(#filter1_d_3_29)">
<path d="M20.4 40.13C22.1 40.13 23.97 40.0167 26.01 39.79C28.05 39.45 30.09 39.28 32.13 39.28C34.2833 39.28 36.38 39.5633 38.42 40.13C40.46 40.6967 42.2733 41.83 43.86 43.53C44.6533 45.1167 44.71 46.08 44.03 46.42C43.4633 46.6467 42.4433 46.76 40.97 46.76C39.61 46.76 37.9667 46.93 36.04 47.27C34.1133 47.4967 32.3 48.4033 30.6 49.99C30.6 51.69 30.77 53.56 31.11 55.6C31.45 57.64 31.6767 59.7367 31.79 61.89C32.0167 64.0433 32.0733 66.14 31.96 68.18C31.8467 70.1067 31.3933 71.92 30.6 73.62C31.3933 74.5267 31.6767 75.7733 31.45 77.36C31.3367 78.8333 31.0533 80.42 30.6 82.12C30.1467 83.82 29.8067 85.4633 29.58 87.05C29.3533 88.6367 29.6933 89.8267 30.6 90.62V97.42C34.7933 93.2267 38.42 89.0333 41.48 84.84C44.6533 80.5333 47.7133 76.2833 50.66 72.09C53.6067 67.8967 56.6667 63.7033 59.84 59.51C63.0133 55.3167 66.6967 51.1233 70.89 46.93C69.9833 46.93 68.9633 47.0433 67.83 47.27C66.6967 47.4967 65.62 47.61 64.6 47.61C63.58 47.61 62.6733 47.3267 61.88 46.76C61.2 46.1933 60.86 45.1167 60.86 43.53C61.6533 42.7367 62.6733 42.2833 63.92 42.17C65.1667 41.9433 66.5267 41.83 68 41.83C69.4733 41.83 71.0033 41.7733 72.59 41.66C74.29 41.5467 75.99 41.0367 77.69 40.13H94.52L97.92 43.53C97.92 45.23 97.75 46.76 97.41 48.12C97.1833 49.3667 96.22 49.99 94.52 49.99C93.6133 49.99 92.5933 49.82 91.46 49.48C90.3267 49.14 89.08 48.8 87.72 48.46C86.4733 48.12 85.2267 47.78 83.98 47.44C82.8467 47.1 81.8833 46.93 81.09 46.93C78.4833 50.2167 76.1033 53.39 73.95 56.45C71.7967 59.3967 69.6433 62.23 67.49 64.95C65.45 67.67 63.2967 70.3333 61.03 72.94C58.8767 75.4333 56.5533 77.9267 54.06 80.42C54.06 82.12 54.4 83.82 55.08 85.52C55.8733 87.22 56.78 88.92 57.8 90.62C58.9333 92.32 60.0667 94.02 61.2 95.72C62.3333 97.3067 63.3533 98.95 64.26 100.65C65.0533 102.35 65.8467 104.22 66.64 106.26C67.5467 108.3 68.51 110.397 69.53 112.55C70.6633 114.59 71.8533 116.63 73.1 118.67C74.46 120.71 75.99 122.523 77.69 124.11C77.69 125.017 78.03 125.923 78.71 126.83C79.39 127.623 80.1267 128.587 80.92 129.72C81.8267 130.74 82.62 131.93 83.3 133.29C84.0933 134.537 84.49 136.01 84.49 137.71H87.89C88.6833 137.71 89.4767 137.54 90.27 137.2C91.1767 136.86 92.0267 136.633 92.82 136.52C93.7267 136.293 94.5767 136.237 95.37 136.35C96.1633 136.463 97.0133 136.917 97.92 137.71C99.62 137.71 101.037 138.447 102.17 139.92C103.303 141.28 103.02 142.81 101.32 144.51C98.7133 146.21 95.9367 147.117 92.99 147.23C90.1567 147.457 87.1533 147.343 83.98 146.89C80.8067 146.55 77.5767 146.04 74.29 145.36C71.0033 144.793 67.66 144.51 64.26 144.51V141.11C65.0533 140.317 65.8467 139.863 66.64 139.75C67.5467 139.523 68.3967 139.41 69.19 139.41C70.0967 139.41 70.9467 139.353 71.74 139.24C72.5333 139.127 73.3833 138.617 74.29 137.71L54.06 104.05C54.06 102.35 53.8333 100.707 53.38 99.12C52.9267 97.5333 52.2467 96.1167 51.34 94.87C50.5467 93.6233 49.5267 92.6033 48.28 91.81C47.0333 91.0167 45.56 90.62 43.86 90.62C42.2733 93.1133 40.5167 95.6633 38.59 98.27C36.6633 100.877 34.9633 103.653 33.49 106.6C32.0167 109.547 30.94 112.72 30.26 116.12C29.58 119.52 29.6933 123.317 30.6 127.51C31.3933 128.417 31.6767 129.493 31.45 130.74C31.3367 131.873 31.1667 133.063 30.94 134.31C30.8267 135.557 30.8833 136.803 31.11 138.05C31.3367 139.297 32.3 140.317 34 141.11C37.2867 139.41 39.8933 138.73 41.82 139.07C43.7467 139.297 45.56 141.11 47.26 144.51L43.86 147.74C41.3667 147.74 39.2133 147.57 37.4 147.23C35.7 147.003 34 146.777 32.3 146.55C30.6 146.323 28.7867 146.267 26.86 146.38C25.0467 146.493 22.8933 146.947 20.4 147.74H17C16.32 148.42 15.7533 148.873 15.3 149.1C14.28 149.667 13.77 149.213 13.77 147.74C12.8633 147.74 11.8433 147.513 10.71 147.06C9.57667 146.72 8.55667 146.267 7.65 145.7C6.85667 145.133 6.29 144.453 5.95 143.66C5.72333 142.867 6.06333 142.017 6.97 141.11C7.53667 139.41 8.27333 138.39 9.18 138.05C10.0867 137.597 11.05 137.54 12.07 137.88C13.09 138.107 14.1667 138.503 15.3 139.07C16.5467 139.523 17.68 139.807 18.7 139.92C19.72 139.92 20.6833 139.58 21.59 138.9C22.4967 138.107 23.2333 136.577 23.8 134.31L20.4 127.51V63.59C22.1 61.89 22.95 59.6233 22.95 56.79C22.95 53.9567 22.1 51.69 20.4 49.99C19.4933 49.1967 18.4733 49.0833 17.34 49.65C16.2067 50.1033 14.96 50.5567 13.6 51.01C12.3533 51.4633 11.1067 51.52 9.86 51.18C8.72667 50.84 7.76333 49.4233 6.97 46.93C6.97 45.23 7.08333 43.7 7.31 42.34C7.65 40.8667 8.67 40.13 10.37 40.13C11.1633 40.13 11.9567 39.96 12.75 39.62C13.6567 39.28 14.5067 39.0533 15.3 38.94C16.2067 38.7133 17.0567 38.6567 17.85 38.77C18.6433 38.8833 19.4933 39.3367 20.4 40.13ZM190.38 79.06C194.007 88.1267 195.65 97.1933 195.31 106.26C195.083 115.327 192.25 124.393 186.81 133.46C184.997 135.273 182.39 137.087 178.99 138.9C175.703 140.6 172.247 142.357 168.62 144.17C165.9 145.077 163.35 145.927 160.97 146.72C158.703 147.513 156.437 148.023 154.17 148.25C151.903 148.477 149.58 148.307 147.2 147.74C144.933 147.173 142.44 145.983 139.72 144.17H136.15C131.617 142.357 127.933 139.977 125.1 137.03C122.267 133.97 119.943 130.627 118.13 127C116.317 123.373 114.843 119.633 113.71 115.78C112.69 111.813 111.727 108.017 110.82 104.39C110.82 102.577 111.16 100.99 111.84 99.63C112.633 98.1567 113.483 96.74 114.39 95.38C115.41 94.02 116.26 92.66 116.94 91.3C117.733 89.8267 118.13 88.1833 118.13 86.37C119.037 82.7433 120.51 79.57 122.55 76.85C124.703 74.13 127.14 71.75 129.86 69.71C132.58 67.67 135.413 65.97 138.36 64.61C141.307 63.1367 144.14 61.9467 146.86 61.04C149.58 61.04 152.3 61.0967 155.02 61.21C157.74 61.21 160.46 61.4367 163.18 61.89C165.9 62.3433 168.62 63.08 171.34 64.1C174.06 65.12 176.78 66.5367 179.5 68.35L190.38 79.06ZM179.5 89.94C177.687 89.0333 176.27 87.9567 175.25 86.71C174.23 85.4633 173.267 84.2733 172.36 83.14C171.453 82.0067 170.49 81.0433 169.47 80.25C168.45 79.4567 167.033 79.06 165.22 79.06C162.5 78.1533 159.78 77.36 157.06 76.68C154.34 75.8867 151.62 75.49 148.9 75.49C146.18 75.49 143.46 76.0567 140.74 77.19C138.02 78.21 135.3 80.08 132.58 82.8C130.767 84.6133 129.52 86.4267 128.84 88.24C128.273 90.0533 127.99 91.98 127.99 94.02C127.99 96.06 128.103 98.27 128.33 100.65C128.67 102.917 128.84 105.41 128.84 108.13C128.84 110.85 129.237 113.513 130.03 116.12C130.937 118.727 132.07 121.163 133.43 123.43C134.79 125.697 136.32 127.737 138.02 129.55C139.833 131.25 141.647 132.553 143.46 133.46C148.9 135.273 154.17 136.01 159.27 135.67C164.37 135.33 168.733 133.347 172.36 129.72C175.08 127 177.12 123.94 178.48 120.54C179.953 117.027 180.917 113.457 181.37 109.83C181.823 106.203 181.823 102.69 181.37 99.29C181.03 95.7767 180.407 92.66 179.5 89.94ZM295.387 71.07C294.48 76.3967 293.914 81.78 293.687 87.22C293.574 92.5467 293.517 97.8167 293.517 103.03C293.517 108.13 293.46 113.173 293.347 118.16C293.234 123.033 292.724 127.737 291.817 132.27C292.724 133.177 293.97 133.743 295.557 133.97C297.144 134.083 298.617 134.253 299.977 134.48C301.337 134.707 302.357 135.16 303.037 135.84C303.717 136.407 303.604 137.597 302.697 139.41C303.604 141.11 303.887 142.3 303.547 142.98C303.32 143.547 302.867 143.943 302.187 144.17C301.507 144.397 300.77 144.567 299.977 144.68C299.297 144.907 298.957 145.473 298.957 146.38C297.71 145.813 296.18 145.53 294.367 145.53C292.554 145.643 290.627 145.813 288.587 146.04C286.66 146.267 284.734 146.38 282.807 146.38C280.994 146.493 279.464 146.267 278.217 145.7C277.084 145.133 276.347 144.113 276.007 142.64C275.78 141.053 276.29 138.787 277.537 135.84H281.107C282.92 134.027 283.94 132.383 284.167 130.91C284.394 129.437 284.394 127.907 284.167 126.32C284.054 124.733 283.884 123.033 283.657 121.22C283.544 119.293 283.94 116.97 284.847 114.25C283.94 111.53 283.544 108.81 283.657 106.09C283.884 103.37 284.054 100.65 284.167 97.93C284.394 95.21 284.394 92.5467 284.167 89.94C283.94 87.22 282.92 84.5 281.107 81.78C282.014 80.8733 282.524 79.7967 282.637 78.55C282.75 77.3033 282.694 76 282.467 74.64C282.24 73.28 281.957 71.9767 281.617 70.73C281.277 69.4833 281.107 68.4067 281.107 67.5C279.294 69.3133 277.48 70.9567 275.667 72.43C273.967 73.79 272.324 75.15 270.737 76.51C269.15 77.87 267.677 79.2867 266.317 80.76C265.07 82.12 263.994 83.7067 263.087 85.52C263.087 86.4267 262.86 87.5033 262.407 88.75C262.067 89.9967 261.67 91.3 261.217 92.66C260.877 94.02 260.48 95.3233 260.027 96.57C259.687 97.8167 259.517 98.8933 259.517 99.8V132.27C260.424 133.177 261.274 133.913 262.067 134.48C262.974 134.933 263.767 135.387 264.447 135.84C265.127 136.293 265.694 136.803 266.147 137.37C266.6 137.823 266.827 138.503 266.827 139.41C267.62 140.317 268.074 140.997 268.187 141.45C268.3 141.903 268.13 142.357 267.677 142.81C267.224 143.263 266.544 143.717 265.637 144.17C264.844 144.737 263.994 145.473 263.087 146.38C262.18 146.38 261.047 146.21 259.687 145.87C258.44 145.53 257.024 145.247 255.437 145.02C253.85 144.793 252.15 144.737 250.337 144.85C248.637 144.963 246.88 145.473 245.067 146.38C243.367 144.567 242.347 142.81 242.007 141.11C241.78 139.41 241.667 137.653 241.667 135.84C243.367 135.84 244.954 135.727 246.427 135.5C248.014 135.16 248.807 134.083 248.807 132.27C248.807 127.737 248.977 123.203 249.317 118.67C249.657 114.137 249.94 109.547 250.167 104.9C250.394 100.14 250.45 95.2667 250.337 90.28C250.224 85.2933 249.714 80.08 248.807 74.64C248.807 73.7333 248.58 72.8833 248.127 72.09C247.674 71.2967 247.107 70.6733 246.427 70.22C245.747 69.7667 244.954 69.5967 244.047 69.71C243.254 69.71 242.46 70.1633 241.667 71.07C237.134 73.79 233.62 77.1333 231.127 81.1C228.634 84.9533 226.82 89.26 225.687 94.02C224.554 98.6667 223.874 103.653 223.647 108.98C223.534 114.193 223.477 119.52 223.477 124.96C224.384 124.96 224.78 125.697 224.667 127.17C224.554 128.643 224.497 130.173 224.497 131.76C224.497 133.347 224.837 134.65 225.517 135.67C226.31 136.69 228.067 136.747 230.787 135.84C232.6 135.84 233.62 136.577 233.847 138.05C234.187 139.523 234.357 141.11 234.357 142.81C230.73 144.623 226.99 145.643 223.137 145.87C219.284 146.21 214.637 146.38 209.197 146.38L205.627 142.81C205.627 141.11 205.74 139.523 205.967 138.05C206.307 136.577 207.384 135.84 209.197 135.84C210.104 135.84 210.84 135.84 211.407 135.84C211.974 135.727 212.484 135.557 212.937 135.33C213.39 135.103 213.844 134.763 214.297 134.31C214.864 133.857 215.6 133.177 216.507 132.27C215.6 127.737 215.09 123.26 214.977 118.84C214.864 114.307 214.92 109.773 215.147 105.24C215.374 100.707 215.657 96.23 215.997 91.81C216.337 87.2767 216.507 82.7433 216.507 78.21C215.6 77.3033 214.524 76.7933 213.277 76.68C212.03 76.4533 210.84 76.2267 209.707 76C208.574 75.7733 207.61 75.3767 206.817 74.81C206.024 74.13 205.627 72.8833 205.627 71.07C205.627 69.2567 205.74 67.6133 205.967 66.14C206.307 64.6667 207.384 63.93 209.197 63.93C210.444 65.1767 211.804 65.97 213.277 66.31C214.864 66.5367 216.337 66.65 217.697 66.65C219.17 66.65 220.53 66.65 221.777 66.65C223.024 66.5367 223.987 66.7067 224.667 67.16C225.347 67.5 225.63 68.2367 225.517 69.37C225.404 70.5033 224.724 72.26 223.477 74.64H227.047C228.974 72.8267 231.58 70.4467 234.867 67.5C238.154 64.5533 241.554 62.1733 245.067 60.36C246.994 60.36 249.43 61.2667 252.377 63.08C255.324 64.78 257.704 67.4433 259.517 71.07V74.64C261.33 73.7333 262.974 72.4867 264.447 70.9C265.92 69.3133 267.394 67.7267 268.867 66.14C270.454 64.5533 272.21 63.1933 274.137 62.06C276.064 60.9267 278.387 60.36 281.107 60.36C282.014 61.2667 283.09 62.0033 284.337 62.57C285.697 63.1367 287 63.76 288.247 64.44C289.607 65.12 290.91 65.97 292.157 66.99C293.404 67.8967 294.48 69.2567 295.387 71.07ZM403.795 71.07C402.888 76.3967 402.322 81.78 402.095 87.22C401.982 92.5467 401.925 97.8167 401.925 103.03C401.925 108.13 401.868 113.173 401.755 118.16C401.642 123.033 401.132 127.737 400.225 132.27C401.132 133.177 402.378 133.743 403.965 133.97C405.552 134.083 407.025 134.253 408.385 134.48C409.745 134.707 410.765 135.16 411.445 135.84C412.125 136.407 412.012 137.597 411.105 139.41C412.012 141.11 412.295 142.3 411.955 142.98C411.728 143.547 411.275 143.943 410.595 144.17C409.915 144.397 409.178 144.567 408.385 144.68C407.705 144.907 407.365 145.473 407.365 146.38C406.118 145.813 404.588 145.53 402.775 145.53C400.962 145.643 399.035 145.813 396.995 146.04C395.068 146.267 393.142 146.38 391.215 146.38C389.402 146.493 387.872 146.267 386.625 145.7C385.492 145.133 384.755 144.113 384.415 142.64C384.188 141.053 384.698 138.787 385.945 135.84H389.515C391.328 134.027 392.348 132.383 392.575 130.91C392.802 129.437 392.802 127.907 392.575 126.32C392.462 124.733 392.292 123.033 392.065 121.22C391.952 119.293 392.348 116.97 393.255 114.25C392.348 111.53 391.952 108.81 392.065 106.09C392.292 103.37 392.462 100.65 392.575 97.93C392.802 95.21 392.802 92.5467 392.575 89.94C392.348 87.22 391.328 84.5 389.515 81.78C390.422 80.8733 390.932 79.7967 391.045 78.55C391.158 77.3033 391.102 76 390.875 74.64C390.648 73.28 390.365 71.9767 390.025 70.73C389.685 69.4833 389.515 68.4067 389.515 67.5C387.702 69.3133 385.888 70.9567 384.075 72.43C382.375 73.79 380.732 75.15 379.145 76.51C377.558 77.87 376.085 79.2867 374.725 80.76C373.478 82.12 372.402 83.7067 371.495 85.52C371.495 86.4267 371.268 87.5033 370.815 88.75C370.475 89.9967 370.078 91.3 369.625 92.66C369.285 94.02 368.888 95.3233 368.435 96.57C368.095 97.8167 367.925 98.8933 367.925 99.8V132.27C368.832 133.177 369.682 133.913 370.475 134.48C371.382 134.933 372.175 135.387 372.855 135.84C373.535 136.293 374.102 136.803 374.555 137.37C375.008 137.823 375.235 138.503 375.235 139.41C376.028 140.317 376.482 140.997 376.595 141.45C376.708 141.903 376.538 142.357 376.085 142.81C375.632 143.263 374.952 143.717 374.045 144.17C373.252 144.737 372.402 145.473 371.495 146.38C370.588 146.38 369.455 146.21 368.095 145.87C366.848 145.53 365.432 145.247 363.845 145.02C362.258 144.793 360.558 144.737 358.745 144.85C357.045 144.963 355.288 145.473 353.475 146.38C351.775 144.567 350.755 142.81 350.415 141.11C350.188 139.41 350.075 137.653 350.075 135.84C351.775 135.84 353.362 135.727 354.835 135.5C356.422 135.16 357.215 134.083 357.215 132.27C357.215 127.737 357.385 123.203 357.725 118.67C358.065 114.137 358.348 109.547 358.575 104.9C358.802 100.14 358.858 95.2667 358.745 90.28C358.632 85.2933 358.122 80.08 357.215 74.64C357.215 73.7333 356.988 72.8833 356.535 72.09C356.082 71.2967 355.515 70.6733 354.835 70.22C354.155 69.7667 353.362 69.5967 352.455 69.71C351.662 69.71 350.868 70.1633 350.075 71.07C345.542 73.79 342.028 77.1333 339.535 81.1C337.042 84.9533 335.228 89.26 334.095 94.02C332.962 98.6667 332.282 103.653 332.055 108.98C331.942 114.193 331.885 119.52 331.885 124.96C332.792 124.96 333.188 125.697 333.075 127.17C332.962 128.643 332.905 130.173 332.905 131.76C332.905 133.347 333.245 134.65 333.925 135.67C334.718 136.69 336.475 136.747 339.195 135.84C341.008 135.84 342.028 136.577 342.255 138.05C342.595 139.523 342.765 141.11 342.765 142.81C339.138 144.623 335.398 145.643 331.545 145.87C327.692 146.21 323.045 146.38 317.605 146.38L314.035 142.81C314.035 141.11 314.148 139.523 314.375 138.05C314.715 136.577 315.792 135.84 317.605 135.84C318.512 135.84 319.248 135.84 319.815 135.84C320.382 135.727 320.892 135.557 321.345 135.33C321.798 135.103 322.252 134.763 322.705 134.31C323.272 133.857 324.008 133.177 324.915 132.27C324.008 127.737 323.498 123.26 323.385 118.84C323.272 114.307 323.328 109.773 323.555 105.24C323.782 100.707 324.065 96.23 324.405 91.81C324.745 87.2767 324.915 82.7433 324.915 78.21C324.008 77.3033 322.932 76.7933 321.685 76.68C320.438 76.4533 319.248 76.2267 318.115 76C316.982 75.7733 316.018 75.3767 315.225 74.81C314.432 74.13 314.035 72.8833 314.035 71.07C314.035 69.2567 314.148 67.6133 314.375 66.14C314.715 64.6667 315.792 63.93 317.605 63.93C318.852 65.1767 320.212 65.97 321.685 66.31C323.272 66.5367 324.745 66.65 326.105 66.65C327.578 66.65 328.938 66.65 330.185 66.65C331.432 66.5367 332.395 66.7067 333.075 67.16C333.755 67.5 334.038 68.2367 333.925 69.37C333.812 70.5033 333.132 72.26 331.885 74.64H335.455C337.382 72.8267 339.988 70.4467 343.275 67.5C346.562 64.5533 349.962 62.1733 353.475 60.36C355.402 60.36 357.838 61.2667 360.785 63.08C363.732 64.78 366.112 67.4433 367.925 71.07V74.64C369.738 73.7333 371.382 72.4867 372.855 70.9C374.328 69.3133 375.802 67.7267 377.275 66.14C378.862 64.5533 380.618 63.1933 382.545 62.06C384.472 60.9267 386.795 60.36 389.515 60.36C390.422 61.2667 391.498 62.0033 392.745 62.57C394.105 63.1367 395.408 63.76 396.655 64.44C398.015 65.12 399.318 65.97 400.565 66.99C401.812 67.8967 402.888 69.2567 403.795 71.07ZM451.513 66.65V127.51C451.513 129.437 451.91 130.91 452.703 131.93C453.61 132.95 454.63 133.743 455.763 134.31C457.01 134.763 458.257 135.047 459.503 135.16C460.863 135.16 461.997 135.16 462.903 135.16C467.663 135.16 471.743 134.31 475.143 132.61C478.657 130.797 481.717 128.473 484.323 125.64C486.93 122.807 489.253 119.577 491.293 115.95C493.333 112.323 495.317 108.583 497.243 104.73V74.3C495.317 72.3733 493.617 71.1267 492.143 70.56C490.67 69.88 489.197 69.54 487.723 69.54C486.25 69.54 484.777 69.71 483.303 70.05C481.83 70.39 480.13 70.56 478.203 70.56V62.91C480.13 61.89 482.227 61.3233 484.493 61.21C486.76 61.0967 489.083 61.04 491.463 61.04C493.843 61.04 496.167 60.9833 498.433 60.87C500.7 60.6433 502.797 60.02 504.723 59C505.743 60.9267 506.31 63.08 506.423 65.46C506.537 67.7267 506.593 70.05 506.593 72.43C506.593 74.81 506.65 77.1333 506.763 79.4C506.99 81.6667 507.613 83.7633 508.633 85.69C506.707 91.47 505.573 97.8167 505.233 104.73C504.893 111.643 504.723 117.99 504.723 123.77C504.723 124.677 504.553 125.64 504.213 126.66C503.873 127.567 503.59 128.53 503.363 129.55C503.137 130.457 503.08 131.42 503.193 132.44C503.307 133.347 503.817 134.253 504.723 135.16C506.65 136.067 508.52 136.237 510.333 135.67C512.26 135.103 514.017 134.593 515.603 134.14C517.303 133.687 518.833 133.687 520.193 134.14C521.667 134.48 522.857 136.067 523.763 138.9C523.763 140.827 522.97 142.583 521.383 144.17C519.91 145.757 518.21 146.55 516.283 146.55C515.263 146.55 513.847 146.72 512.033 147.06C510.333 147.4 508.407 147.57 506.253 147.57C504.1 147.57 501.89 147.23 499.623 146.55C497.357 145.983 495.26 144.737 493.333 142.81V131.42C490.5 134.253 487.44 136.86 484.153 139.24C480.867 141.507 477.41 143.32 473.783 144.68C470.27 146.153 466.643 147.06 462.903 147.4C459.163 147.853 455.367 147.57 451.513 146.55C449.587 145.643 448.057 144.51 446.923 143.15C445.903 141.79 445.053 140.43 444.373 139.07C443.693 137.597 443.013 136.18 442.333 134.82C441.767 133.46 441.03 132.327 440.123 131.42V81.95C440.123 80.93 440.293 79.9667 440.633 79.06C440.973 78.04 441.257 77.0767 441.483 76.17C441.71 75.2633 441.767 74.3567 441.653 73.45C441.54 72.43 441.03 71.4667 440.123 70.56C438.197 69.54 436.27 69.3133 434.343 69.88C432.53 70.4467 430.773 70.9567 429.073 71.41C427.487 71.8633 425.957 71.92 424.483 71.58C423.123 71.1267 421.99 69.4833 421.083 66.65C423.01 63.8167 425.107 62.0033 427.373 61.21C429.64 60.4167 431.963 60.02 434.343 60.02C436.723 60.02 439.047 60.1333 441.313 60.36C443.693 60.4733 445.847 60.02 447.773 59L451.513 66.65ZM563.824 66.99C563.824 67.8967 563.654 68.86 563.314 69.88C562.974 70.7867 562.69 71.6933 562.464 72.6C562.237 73.5067 562.18 74.47 562.294 75.49C562.407 76.3967 562.917 77.36 563.824 78.38C564.844 78.38 565.807 77.9833 566.714 77.19C567.734 76.3967 568.697 75.5467 569.604 74.64C570.624 73.62 571.587 72.7133 572.494 71.92C573.514 71.1267 574.477 70.73 575.384 70.73C576.29 67.8967 577.65 65.9133 579.464 64.78C581.277 63.5333 583.26 62.6833 585.414 62.23C587.567 61.6633 589.72 61.2667 591.874 61.04C594.14 60.8133 596.237 60.2467 598.164 59.34C599.977 59.34 601.79 59.7933 603.604 60.7C605.53 61.4933 607.344 62.5133 609.044 63.76C610.744 64.8933 612.274 66.14 613.634 67.5C614.994 68.7467 616.184 69.8233 617.204 70.73C618.11 76.3967 618.62 81.8933 618.734 87.22C618.847 92.5467 618.79 97.8167 618.564 103.03C618.337 108.243 618.054 113.513 617.714 118.84C617.374 124.167 617.204 129.663 617.204 135.33H624.684C625.704 134.31 626.497 133.743 627.064 133.63C627.63 133.517 628.14 133.63 628.594 133.97C629.047 134.197 629.5 134.48 629.954 134.82C630.52 135.16 631.257 135.33 632.164 135.33C634.09 135.33 635.224 136.123 635.564 137.71C635.904 139.183 636.074 140.883 636.074 142.81C634.147 144.737 632.05 145.983 629.784 146.55C627.517 147.23 625.194 147.57 622.814 147.57C620.434 147.57 618.11 147.4 615.844 147.06C613.577 146.72 611.48 146.55 609.554 146.55C608.534 145.643 607.004 145.247 604.964 145.36C602.924 145.587 600.827 145.813 598.674 146.04C596.52 146.38 594.65 146.38 593.064 146.04C591.477 145.813 590.684 144.737 590.684 142.81C590.684 140.883 590.797 139.183 591.024 137.71C591.364 136.123 592.44 135.33 594.254 135.33H609.554C607.627 129.663 606.664 123.997 606.664 118.33C606.777 112.663 606.947 107.11 607.174 101.67C607.4 96.1167 607.287 90.79 606.834 85.69C606.38 80.4767 604.737 75.49 601.904 70.73C599.977 69.8233 597.88 69.37 595.614 69.37C593.347 69.2567 591.024 69.5967 588.644 70.39C586.264 71.07 583.884 72.09 581.504 73.45C579.237 74.81 577.197 76.4533 575.384 78.38C572.437 80.3067 570 82.8567 568.074 86.03C566.26 89.09 564.844 92.5467 563.824 96.4C562.917 100.14 562.464 104.107 562.464 108.3C562.464 112.38 562.917 116.29 563.824 120.03C562.917 121.05 562.35 122.013 562.124 122.92C562.01 123.827 561.954 124.79 561.954 125.81C561.954 126.717 561.897 127.623 561.784 128.53C561.67 129.437 561.16 130.4 560.254 131.42C561.5 132.667 562.974 133.573 564.674 134.14C566.487 134.707 568.3 135.16 570.114 135.5C571.927 135.727 573.627 135.953 575.214 136.18C576.914 136.407 578.274 136.917 579.294 137.71C580.314 138.39 580.824 139.41 580.824 140.77C580.937 142.13 580.37 144.057 579.124 146.55H567.734C564.9 146.55 561.84 146.72 558.554 147.06C555.38 147.4 552.264 147.57 549.204 147.57C546.144 147.57 543.254 147.23 540.534 146.55C537.814 145.983 535.547 144.737 533.734 142.81C534.64 141.903 534.98 140.997 534.754 140.09C534.527 139.07 534.3 138.107 534.074 137.2C533.847 136.293 533.847 135.387 534.074 134.48C534.3 133.46 535.377 132.44 537.304 131.42C538.324 131.42 539.514 131.59 540.874 131.93C542.234 132.27 543.594 132.61 544.954 132.95C546.427 133.177 547.844 133.233 549.204 133.12C550.564 133.007 551.697 132.44 552.604 131.42V70.73C551.697 69.8233 550.507 69.6533 549.034 70.22C547.674 70.7867 546.144 71.4667 544.444 72.26C542.857 72.94 541.1 73.3367 539.174 73.45C537.36 73.5633 535.547 72.6567 533.734 70.73C533.734 69.8233 533.904 68.7467 534.244 67.5C534.697 66.14 535.264 64.8933 535.944 63.76C536.624 62.5133 537.417 61.4933 538.324 60.7C539.23 59.7933 540.194 59.34 541.214 59.34C542.46 60.5867 543.82 61.3233 545.294 61.55C546.767 61.6633 548.24 61.6067 549.714 61.38C551.187 61.04 552.604 60.7 553.964 60.36C555.437 59.9067 556.797 59.7933 558.044 60.02C559.29 60.1333 560.424 60.7 561.444 61.72C562.464 62.74 563.257 64.4967 563.824 66.99ZM723.314 87.9C723.314 89.8267 723.427 91.6967 723.654 93.51C723.994 95.3233 724.164 97.0233 724.164 98.61C724.164 100.197 723.824 101.67 723.144 103.03C722.577 104.39 721.387 105.523 719.574 106.43C708.581 102.69 697.644 102.69 686.764 106.43C684.044 105.523 681.494 105.013 679.114 104.9C676.847 104.787 674.694 104.843 672.654 105.07C670.614 105.297 668.631 105.58 666.704 105.92C664.777 106.26 662.907 106.43 661.094 106.43C659.281 108.243 658.431 109.887 658.544 111.36C658.771 112.72 659.337 114.08 660.244 115.44C661.151 116.8 662.114 118.217 663.134 119.69C664.267 121.163 664.834 122.807 664.834 124.62C665.741 126.433 666.817 127.85 668.064 128.87C669.424 129.89 670.784 130.74 672.144 131.42C673.504 132.1 674.807 132.723 676.054 133.29C677.414 133.857 678.547 134.593 679.454 135.5C686.821 135.5 693.224 133.857 698.664 130.57C704.104 127.17 708.637 122.75 712.264 117.31C714.191 117.31 715.891 118.047 717.364 119.52C718.837 120.993 719.574 122.693 719.574 124.62C719.574 126.433 719.121 128.077 718.214 129.55C717.421 131.023 716.344 132.44 714.984 133.8C713.624 135.16 712.094 136.577 710.394 138.05C708.694 139.523 706.937 141.167 705.124 142.98C702.404 143.887 699.061 144.68 695.094 145.36C691.241 146.153 687.217 146.55 683.024 146.55C678.944 146.55 674.921 145.983 670.954 144.85C667.101 143.83 663.814 141.96 661.094 139.24C659.281 136.52 657.297 133.97 655.144 131.59C652.991 129.097 651.007 126.603 649.194 124.11C647.381 121.617 645.851 118.953 644.604 116.12C643.471 113.287 642.904 110.057 642.904 106.43C642.904 105.523 643.074 104.617 643.414 103.71C643.867 102.69 644.321 101.613 644.774 100.48C645.227 99.2333 645.624 97.93 645.964 96.57C646.417 95.0967 646.644 93.4533 646.644 91.64C647.551 88.0133 648.854 84.4433 650.554 80.93C652.367 77.4167 654.521 74.1867 657.014 71.24C659.507 68.18 662.341 65.5733 665.514 63.42C668.687 61.2667 672.087 59.7367 675.714 58.83C681.154 58.83 686.367 59.51 691.354 60.87C696.341 62.1167 700.874 63.9867 704.954 66.48C709.147 68.9733 712.774 72.0333 715.834 75.66C719.007 79.2867 721.501 83.3667 723.314 87.9ZM708.694 91.64C708.694 90.7333 708.467 89.6567 708.014 88.41C707.674 87.1633 707.164 85.9733 706.484 84.84C705.804 83.7067 705.011 82.7433 704.104 81.95C703.197 81.1567 702.291 80.76 701.384 80.76C699.571 79.8533 697.531 78.8333 695.264 77.7C693.111 76.4533 690.844 75.49 688.464 74.81C686.197 74.13 683.931 73.9033 681.664 74.13C679.511 74.2433 677.527 75.2067 675.714 77.02C674.807 78.9467 673.504 80.4767 671.804 81.61C670.217 82.63 668.631 83.7633 667.044 85.01C665.457 86.1433 664.041 87.5033 662.794 89.09C661.661 90.5633 661.094 92.66 661.094 95.38C664.721 95.38 668.574 95.38 672.654 95.38C676.734 95.2667 680.814 95.0967 684.894 94.87C688.974 94.6433 693.054 94.3033 697.134 93.85C701.214 93.2833 705.067 92.5467 708.694 91.64Z" fill="#090F14"/>
</g>
<defs>
<filter id="filter0_d_3_29" x="776.4" y="33.67" width="163.161" height="121.56" filterUnits="userSpaceOnUse" color-interpolation-filters="sRGB">
<feFlood flood-opacity="0" result="BackgroundImageFix"/>
<feColorMatrix in="SourceAlpha" type="matrix" values="0 0 0 0 0 0 0 0 0 0 0 0 0 0 0 0 0 0 127 0" result="hardAlpha"/>
<feOffset dy="4"/>
<feGaussianBlur stdDeviation="2"/>
<feComposite in2="hardAlpha" operator="out"/>
<feColorMatrix type="matrix" values="0 0 0 0 0 0 0 0 0 0 0 0 0 0 0 0 0 0 0.25 0"/>
<feBlend mode="normal" in2="BackgroundImageFix" result="effect1_dropShadow_3_29"/>
<feBlend mode="normal" in="SourceGraphic" in2="effect1_dropShadow_3_29" result="shape"/>
</filter>
<filter id="filter1_d_3_29" x="1.60999" y="38.6" width="726.554" height="119.35" filterUnits="userSpaceOnUse" color-interpolation-filters="sRGB">
<feFlood flood-opacity="0" result="BackgroundImageFix"/>
<feColorMatrix in="SourceAlpha" type="matrix" values="0 0 0 0 0 0 0 0 0 0 0 0 0 0 0 0 0 0 127 0" result="hardAlpha"/>
<feOffset dy="4"/>
<feGaussianBlur stdDeviation="2"/>
<feComposite in2="hardAlpha" operator="out"/>
<feColorMatrix type="matrix" values="0 0 0 0 0 0 0 0 0 0 0 0 0 0 0 0 0 0 0.25 0"/>
<feBlend mode="normal" in2="BackgroundImageFix" result="effect1_dropShadow_3_29"/>
<feBlend mode="normal" in="SourceGraphic" in2="effect1_dropShadow_3_29" result="shape"/>
</filter>
</defs>
</svg>
